<?xml version="1.0" standalone="no"?>
<!DOCTYPE svg PUBLIC "-//W3C//DTD SVG 20010904//EN"
 "http://www.w3.org/TR/2001/REC-SVG-20010904/DTD/svg10.dtd">
<svg version="1.0" xmlns="http://www.w3.org/2000/svg"
 width="512.000000pt" height="512.000000pt" viewBox="0 0 512.000000 512.000000"
 preserveAspectRatio="xMidYMid meet">
<metadata>
Created by potrace 1.16, written by Peter Selinger 2001-2019
</metadata>
<g transform="translate(0.000000,512.000000) scale(0.100000,-0.100000)"
fill="#000000" stroke="none">
<path d="M0 5050 l0 -70 33 14 c17 8 46 18 62 23 27 8 30 13 33 56 l3 47 -65
0 -66 0 0 -70z"/>
<path d="M238 5063 c-4 -66 -28 -89 -28 -26 0 28 -3 34 -10 23 -5 -8 -10 -24
-10 -34 0 -11 -10 -31 -22 -44 -21 -23 -21 -24 -3 -14 28 14 55 -2 55 -34 0
-35 -26 -41 -58 -12 -23 20 -33 23 -68 18 -67 -10 -94 -33 -94 -81 l0 -41 26
31 c33 40 80 42 122 6 l29 -24 32 40 c20 24 44 42 62 46 16 3 32 10 37 17 5 6
6 50 4 99 l-4 87 -34 0 -33 0 -3 -57z"/>
<path d="M371 5008 c1 -62 4 -170 8 -240 l6 -128 50 -33 c43 -28 50 -37 48
-62 -13 -146 3 -211 68 -276 67 -68 67 -96 -1 -145 -43 -31 -50 -41 -50 -70 0
-24 5 -34 15 -34 22 0 191 115 199 136 3 9 4 32 0 50 -5 25 -1 40 15 60 17 22
21 40 21 103 0 92 -28 161 -84 206 -20 17 -56 47 -79 67 l-42 37 3 86 c2 60 7
91 17 102 12 11 15 42 15 134 0 73 -4 119 -10 119 -5 0 -10 -21 -10 -47 0 -40
-5 -52 -32 -81 -33 -33 -33 -33 -36 -150 -4 -157 3 -176 98 -255 55 -46 76
-70 78 -90 2 -15 14 -39 28 -54 20 -21 24 -36 24 -85 0 -49 -4 -63 -25 -83
-31 -32 -91 -34 -129 -4 -35 28 -66 90 -66 134 0 29 5 39 30 53 48 27 40 57
-30 122 l-60 56 0 242 0 242 -35 0 -35 0 1 -112z"/>
<path d="M655 4993 c4 -77 12 -131 19 -135 34 -23 86 2 86 40 0 41 -26 72 -61
72 l-29 0 0 75 c0 49 -4 75 -11 75 -8 0 -9 -36 -4 -127z"/>
<path d="M710 5080 c0 -28 5 -42 19 -49 25 -14 31 -5 31 46 0 39 -2 43 -25 43
-22 0 -25 -4 -25 -40z"/>
<path d="M820 5038 c0 -66 4 -88 20 -108 23 -30 38 -20 16 11 -12 18 -14 39
-9 101 5 68 4 78 -11 78 -14 0 -16 -12 -16 -82z"/>
<path d="M940 5110 c0 -13 30 -13 50 0 11 7 7 10 -17 10 -18 0 -33 -4 -33 -10z"/>
<path d="M1024 5089 c-16 -17 -46 -42 -66 -55 -37 -24 -51 -54 -25 -54 15 0
157 118 157 131 0 20 -38 7 -66 -22z"/>
<path d="M1244 5090 c34 -31 34 -31 33 -113 -2 -66 2 -90 19 -121 20 -39 50
-64 38 -32 -4 10 0 18 10 22 11 4 34 -10 70 -42 30 -27 73 -62 97 -79 78 -56
83 -68 85 -221 1 -138 7 -160 41 -147 16 6 19 218 3 272 -13 47 -50 84 -147
147 -45 29 -89 66 -98 82 -10 16 -31 37 -46 46 -16 9 -32 28 -35 42 -7 28 -1
98 12 128 5 13 4 17 -3 13 -6 -4 -18 2 -28 13 -11 12 -31 20 -52 20 l-34 0 35
-30z"/>
<path d="M1402 5023 c2 -62 7 -98 14 -98 6 0 28 15 49 33 l38 34 -37 30 c-29
23 -36 36 -36 64 0 24 -5 34 -15 34 -13 0 -15 -15 -13 -97z"/>
<path d="M1500 5095 l24 -25 25 22 c14 13 28 24 30 26 2 1 -20 2 -49 2 l-53 0
23 -25z"/>
<path d="M1621 5089 c-18 -16 -30 -33 -27 -37 4 -3 23 11 44 31 44 44 30 50
-17 6z"/>
<path d="M1720 5091 c0 -42 -114 -141 -162 -141 -56 0 -91 -59 -53 -90 18 -15
13 -18 138 93 49 43 104 88 123 99 24 14 34 27 34 44 0 21 -4 24 -40 24 -37 0
-40 -2 -40 -29z"/>
<path d="M1880 5115 c0 -3 6 -21 14 -40 17 -39 54 -54 92 -36 25 11 49 55 38
72 -5 9 -144 13 -144 4z"/>
<path d="M2113 5093 c-10 -15 -39 -48 -65 -75 -26 -26 -44 -50 -39 -52 8 -5
155 108 180 138 12 14 9 16 -22 16 -28 0 -40 -6 -54 -27z"/>
<path d="M2371 5103 c7 -10 15 -20 16 -22 2 -2 3 5 3 17 0 14 -6 22 -16 22
-14 0 -15 -3 -3 -17z"/>
<path d="M2622 5022 c95 -96 109 -120 120 -201 3 -24 4 -24 30 11 24 32 26 39
16 66 -14 36 -8 46 20 38 29 -10 55 -53 48 -82 -4 -13 -29 -45 -56 -72 -43
-40 -52 -55 -58 -97 -5 -32 -22 -70 -45 -104 l-37 -53 0 -175 0 -174 47 -51
c47 -50 48 -51 51 -127 4 -72 -9 -198 -23 -232 -3 -9 3 -26 14 -40 l21 -24 -7
47 c-5 42 -1 57 32 121 43 83 45 66 -24 187 -40 72 -42 126 -5 163 37 37 26
57 -31 57 l-45 0 0 124 c0 136 6 150 57 144 l28 -3 3 -90 c4 -150 16 -130 22
36 l5 157 31 38 c50 63 56 81 52 150 -5 82 -32 112 -148 166 -47 22 -108 57
-136 79 -89 68 -81 42 18 -59z"/>
<path d="M2715 5104 c11 -9 45 -29 76 -44 93 -48 158 -137 159 -220 1 -20 4
-17 15 15 8 22 15 41 15 42 0 1 16 11 35 23 29 18 47 21 101 18 l66 -3 13 38
c7 21 35 61 61 89 27 28 43 53 37 55 -6 2 -35 -21 -63 -52 -53 -55 -53 -55
-112 -55 -65 0 -113 -16 -142 -49 -23 -26 -38 -27 -53 -2 -14 23 8 60 57 96
29 22 45 25 111 25 62 0 81 4 100 20 l24 19 -98 1 c-79 0 -106 -4 -137 -20
-49 -25 -77 -25 -115 0 -23 15 -47 20 -100 20 -65 -1 -69 -2 -50 -16z"/>
<path d="M3384 5090 c8 -41 -7 -74 -59 -132 -25 -28 -45 -54 -45 -60 0 -5 -5
-6 -11 -2 -16 10 -4 70 21 101 28 36 14 45 -16 9 -22 -25 -25 -36 -22 -104 l3
-76 57 -43 c93 -71 102 -90 106 -217 7 -207 -13 -262 -96 -273 -27 -4 -52 -1
-68 8 -45 23 -54 57 -54 192 l0 123 35 34 c19 19 35 40 35 48 0 8 -20 33 -45
56 -32 30 -45 50 -45 69 0 33 -32 67 -64 67 -29 0 -76 -36 -76 -58 0 -17 107
-108 116 -99 3 2 -16 23 -41 45 -50 44 -57 69 -21 78 33 8 44 0 67 -50 10 -22
25 -50 34 -61 13 -19 12 -24 -13 -59 -26 -37 -27 -43 -30 -198 -2 -112 0 -170
9 -190 14 -33 60 -58 106 -58 35 0 110 34 141 62 30 29 30 3 -1 -43 -62 -93
-221 -93 -284 1 -28 40 -30 17 -3 -27 25 -42 93 -91 137 -99 74 -14 170 52
192 133 14 49 14 347 1 395 -8 27 -30 55 -80 100 -92 82 -93 100 -10 196 55
64 60 74 60 116 0 40 -3 46 -21 46 -19 0 -21 -4 -15 -30z"/>
<path d="M3490 5061 l0 -59 -65 -65 c-36 -36 -65 -73 -65 -83 0 -10 32 -48 70
-85 39 -37 75 -80 80 -94 6 -14 10 -112 10 -216 0 -203 -5 -229 -56 -296 -40
-53 -102 -83 -185 -90 -57 -5 -83 -13 -123 -37 -42 -26 -61 -32 -127 -35 -71
-3 -83 0 -124 23 -52 31 -75 69 -75 126 0 46 -25 57 -36 15 -9 -35 9 -71 66
-141 27 -32 50 -67 50 -76 0 -9 -12 -31 -27 -49 -26 -31 -28 -40 -33 -155 -3
-70 -10 -128 -16 -134 -8 -8 -27 3 -70 39 -62 53 -73 58 -105 40 -30 -16 -9
-35 86 -79 62 -29 89 -36 118 -33 l37 5 0 124 c0 103 3 131 19 162 32 61 102
112 155 112 14 0 60 11 102 25 42 14 95 25 118 25 84 0 196 80 232 166 11 26
14 92 14 286 0 233 -2 256 -20 285 -10 17 -28 37 -40 43 -16 9 -18 15 -10 30
20 37 67 17 106 -43 15 -25 17 -49 15 -184 -1 -123 1 -154 11 -151 9 3 14 38
16 124 5 183 1 198 -70 266 -54 52 -60 61 -53 86 13 49 17 182 6 182 -7 0 -11
-24 -11 -59z"/>
<path d="M3535 5110 c3 -5 15 -10 25 -10 10 0 22 5 25 10 4 6 -7 10 -25 10
-18 0 -29 -4 -25 -10z"/>
<path d="M3607 5113 c-4 -3 -7 -43 -7 -87 l0 -82 61 -59 c70 -69 89 -101 89
-148 0 -19 8 -45 19 -58 17 -22 18 -37 12 -168 l-6 -144 -39 -31 c-91 -73
-139 -124 -159 -166 -45 -96 -162 -182 -268 -196 -29 -4 -67 -15 -84 -25 -17
-10 -67 -22 -114 -28 -74 -8 -87 -13 -115 -40 l-31 -31 -3 -153 c-3 -138 -5
-154 -24 -174 -26 -28 -24 -30 82 -114 80 -63 103 -98 90 -134 -5 -11 -47 -56
-95 -99 -48 -44 -100 -97 -116 -119 -29 -40 -29 -41 -29 -183 l0 -143 68 -78
c38 -43 74 -88 80 -100 7 -12 12 -62 12 -110 0 -84 -2 -91 -30 -123 -52 -62
-48 -68 128 -203 9 -7 21 -2 42 18 32 31 31 45 -5 45 -13 0 -45 17 -71 38
l-48 38 3 149 c3 175 11 197 83 233 60 30 91 22 135 -36 l32 -42 3 31 3 31 25
-20 25 -20 -29 -31 c-37 -39 -56 -39 -99 -1 -36 32 -83 40 -105 18 -17 -17
-17 -279 0 -296 36 -36 110 12 143 92 l16 39 19 -31 c22 -36 41 -48 95 -58 29
-5 56 -22 100 -64 33 -32 77 -63 98 -69 49 -16 61 -55 27 -83 -45 -36 -112 -4
-130 62 -14 53 -40 82 -110 124 -71 42 -93 48 -35 10 66 -44 104 -85 122 -133
22 -62 37 -77 90 -95 38 -13 50 -14 72 -3 25 12 26 16 31 117 6 118 10 128 86
211 30 32 54 63 54 69 0 25 -31 5 -100 -65 -67 -67 -79 -75 -112 -75 -21 0
-47 -6 -58 -12 -16 -10 -25 -9 -49 5 -16 9 -46 17 -66 17 -49 0 -71 14 -94 59
-18 35 -83 101 -99 101 -4 0 -13 -4 -20 -9 -10 -6 -5 -10 17 -14 29 -6 31 -9
31 -51 0 -36 -5 -48 -26 -65 -64 -50 -89 -19 -89 108 l0 96 27 3 c21 2 40 -7
76 -37 27 -23 52 -41 56 -41 5 0 21 11 38 25 16 14 36 25 45 25 8 0 43 -16 77
-35 104 -58 149 -50 249 44 l37 35 0 112 c0 98 -3 115 -21 138 -15 19 -19 34
-14 55 9 40 -7 66 -60 96 -25 15 -47 37 -52 52 -6 17 -31 40 -68 62 -78 48
-100 80 -99 140 1 63 28 108 89 148 26 18 52 38 56 45 5 7 9 47 9 89 0 68 3
78 25 99 17 16 39 24 71 26 25 1 54 10 63 18 10 9 23 16 29 16 7 0 12 5 12 10
0 6 -27 10 -62 9 -49 0 -74 -6 -113 -27 l-50 -27 -3 -80 c-3 -114 -6 -122 -63
-156 -61 -38 -89 -88 -89 -160 0 -69 23 -113 84 -161 123 -95 186 -152 186
-165 0 -8 -11 -24 -25 -35 -43 -33 -27 -78 27 -78 31 0 37 -19 13 -44 -8 -8
-15 -31 -15 -52 0 -32 -8 -45 -54 -90 -36 -36 -53 -59 -50 -71 3 -10 -2 -27
-11 -38 -15 -20 -15 -20 -34 3 -11 12 -29 22 -41 22 -28 0 -70 22 -99 54 -13
14 -40 31 -60 37 -20 7 -53 27 -74 45 -45 41 -77 43 -139 10 -34 -18 -49 -21
-57 -13 -17 17 -14 23 36 56 63 42 124 43 179 3 70 -51 80 -54 124 -41 87 26
119 90 105 216 -7 68 -15 79 -118 171 l-37 34 0 114 c0 93 4 122 19 152 22 43
54 74 96 93 29 14 30 16 35 101 4 74 9 90 29 112 13 14 39 28 57 32 18 3 40
15 50 25 14 16 31 19 100 19 94 0 114 -11 114 -64 0 -46 -19 -94 -39 -101 -9
-3 -42 -4 -72 -2 -78 3 -89 -8 -89 -95 0 -81 15 -83 23 -3 8 77 16 84 85 78
57 -5 59 -5 90 31 18 20 32 47 32 59 0 12 3 45 6 73 6 44 3 55 -15 73 -19 19
-32 21 -142 21 l-122 0 -31 -36 c-45 -52 -97 -106 -129 -131 -21 -18 -27 -32
-27 -61 0 -34 -4 -40 -35 -55 -26 -13 -35 -23 -35 -42 0 -32 12 -32 46 0 16
15 39 25 55 25 45 0 36 -28 -15 -50 -29 -12 -51 -30 -61 -49 -15 -30 -17 -31
-43 -17 -28 14 -28 14 -55 -34 -21 -37 -27 -61 -27 -108 0 -34 5 -64 10 -67 6
-3 24 9 40 27 l30 32 0 -77 0 -77 50 -55 50 -55 0 -78 0 -78 -46 -55 c-67 -79
-64 -76 -80 -55 -19 27 -19 28 21 76 25 30 35 52 35 76 0 35 -3 39 -75 104
-24 22 -26 29 -21 71 10 72 -3 80 -117 72 -79 -5 -94 -3 -106 11 -12 14 -11
20 10 42 21 23 30 25 72 20 68 -8 77 -2 77 51 0 45 -2 48 -90 131 l-90 85 0
172 c0 165 1 172 23 192 34 32 60 42 121 49 71 9 96 -9 96 -68 0 -66 -23 -104
-78 -132 -42 -21 -52 -23 -62 -11 -12 15 -13 14 59 73 30 25 32 31 22 50 -15
28 -69 30 -98 3 -18 -17 -20 -32 -22 -155 -1 -77 3 -145 9 -155 5 -11 32 -36
60 -56 50 -37 51 -37 72 -19 30 28 68 109 68 147 0 25 11 46 45 86 l45 53 0
79 c0 46 -4 79 -10 79 -5 0 -10 12 -10 26 0 37 46 78 113 99 101 32 197 137
197 217 0 50 24 76 85 93 l55 16 2 167 3 167 25 0 25 0 0 -190 0 -189 -44 -8
c-47 -8 -61 -20 -61 -53 0 -18 5 -20 59 -17 43 3 64 9 77 23 18 20 54 26 54 9
0 -5 -17 -29 -37 -51 -38 -42 -38 -43 -41 -140 -3 -67 0 -99 7 -99 7 0 11 27
11 73 0 60 4 77 20 95 32 34 70 28 124 -19 l46 -41 0 -300 0 -301 41 -38 c40
-37 41 -41 36 -85 -6 -58 -34 -87 -103 -107 -43 -13 -56 -13 -89 -1 -50 17
-65 37 -65 90 0 25 -6 47 -15 54 -11 9 -15 32 -15 80 0 55 4 70 21 86 12 10
33 39 48 64 25 44 26 51 31 245 3 110 8 205 12 211 10 16 -15 36 -35 28 -13
-5 -15 -35 -14 -223 2 -214 2 -218 -22 -252 -30 -45 -79 -79 -113 -79 -34 0
-58 -9 -58 -22 0 -7 16 -9 40 -5 55 7 54 -18 -1 -33 -38 -10 -40 -13 -35 -38
4 -15 19 -39 35 -53 63 -58 78 -117 46 -179 -15 -29 -14 -30 14 -45 42 -21 51
-19 51 13 0 35 6 41 29 35 14 -4 20 -19 24 -70 4 -40 13 -73 23 -84 25 -27 35
-23 19 7 -26 51 25 122 104 144 25 7 64 35 119 87 77 73 82 80 82 120 0 37 -4
45 -39 70 -78 56 -81 65 -81 280 l0 192 26 20 c15 12 30 21 33 21 4 0 63 -35
131 -78 129 -80 148 -103 119 -138 -19 -23 -13 -273 7 -295 19 -21 19 -150 -1
-188 -8 -16 -44 -55 -80 -88 -36 -33 -65 -65 -65 -70 0 -6 -9 -18 -20 -28 -13
-11 -20 -31 -20 -52 0 -19 -7 -48 -16 -64 -12 -23 -13 -38 -6 -59 14 -40 3
-45 -30 -13 -22 21 -28 36 -28 67 0 53 35 114 83 145 25 17 34 28 27 35 -21
21 -8 51 45 107 51 54 55 61 55 106 0 27 -6 55 -12 61 -8 8 -15 52 -18 110
l-5 97 -38 6 c-21 3 -44 12 -52 20 -20 21 -26 156 -8 171 11 9 19 9 35 -1 20
-13 34 -9 25 6 -3 5 -26 19 -52 32 -32 16 -49 20 -58 13 -8 -7 -12 -56 -12
-162 l0 -152 43 -35 c51 -43 55 -31 7 24 -26 31 -35 50 -35 78 l0 37 65 -57
65 -57 0 -107 0 -106 -100 -96 c-55 -52 -100 -103 -100 -113 0 -10 8 -31 17
-47 16 -27 16 -30 -7 -78 -22 -48 -22 -51 -6 -76 10 -15 38 -41 64 -58 25 -18
62 -47 83 -65 l36 -32 48 21 c52 23 109 20 119 -7 8 -22 7 -157 -2 -171 -13
-21 -96 -27 -130 -9 l-31 16 -153 -156 c-84 -86 -158 -165 -165 -177 -11 -23
-23 -407 -12 -407 8 0 160 141 395 366 171 164 193 188 203 228 6 27 11 138
11 278 0 273 -4 259 114 358 42 35 76 70 76 76 0 6 -7 17 -15 24 -12 10 -25 4
-72 -38 -32 -27 -82 -75 -110 -105 -58 -61 -66 -91 -38 -143 11 -22 15 -66 15
-182 0 -163 -10 -211 -48 -231 -51 -27 -73 36 -27 79 25 24 26 26 23 155 l-3
130 -39 3 c-33 3 -43 -1 -67 -28 -16 -17 -33 -28 -39 -25 -5 3 -10 29 -10 57
0 29 -5 77 -12 108 -16 81 -6 118 54 186 78 89 78 91 78 354 0 136 4 239 10
250 8 16 4 23 -22 43 -53 40 -327 211 -403 251 -121 65 -155 117 -121 184 13
26 16 71 16 266 l0 234 -30 64 c-28 59 -30 70 -30 186 0 106 -2 122 -16 122
-14 0 -16 -16 -12 -140 3 -107 1 -140 -9 -140 -28 0 -42 46 -49 163 -4 64 -10
117 -15 117 -14 0 -16 -124 -2 -147 29 -49 6 -71 -35 -33 -19 18 -22 31 -22
100 0 72 -2 80 -19 80 -16 0 -21 -9 -27 -46 -13 -87 -4 -106 99 -207 71 -69
98 -102 106 -132 15 -55 15 -426 -1 -459 -12 -27 -45 -44 -57 -29 -4 4 -4 105
-1 223 3 118 1 230 -3 248 -10 40 -55 92 -124 143 -74 55 -86 82 -77 180 l7
79 -35 0 c-19 0 -38 -3 -41 -7z m553 -1098 c10 -13 10 -19 -4 -33 -14 -16 -16
-50 -16 -256 l0 -237 35 -30 c25 -22 35 -39 35 -60 0 -50 -27 -48 -76 4 l-44
46 0 270 c0 258 1 272 20 291 24 24 33 25 50 5z m-820 -195 l0 -129 -32 -36
c-17 -20 -52 -47 -78 -60 -50 -25 -64 -46 -55 -76 4 -13 16 -19 36 -19 36 0
38 -18 5 -49 -20 -19 -28 -21 -45 -12 -36 20 -51 52 -51 113 0 69 21 98 73 98
23 0 41 8 58 26 22 24 24 34 27 150 l4 124 29 0 29 0 0 -130z m-110 -772 c20
-37 5 -52 -38 -37 -43 15 -81 4 -92 -27 -6 -14 -10 -68 -10 -119 l0 -94 -55
-42 -54 -41 -36 22 c-41 25 -70 64 -60 80 4 7 16 3 35 -10 24 -17 32 -18 54
-8 15 6 29 22 32 35 11 41 -1 151 -18 170 -20 23 -13 40 25 60 54 28 110 42
157 40 37 -2 47 -7 60 -29z m-30 -63 c37 -19 39 -49 5 -71 -21 -14 -31 -15
-51 -6 -31 15 -40 37 -26 68 13 28 31 30 72 9z m-246 -71 c30 -30 15 -94 -23
-94 -21 0 -51 30 -51 52 0 51 42 75 74 42z m254 -80 c4 -36 -18 -50 -49 -34
-36 20 -15 74 26 68 14 -2 21 -12 23 -34z m97 16 c9 -14 -13 -50 -31 -50 -17
0 -28 24 -20 45 6 17 42 20 51 5z m1084 -284 c9 -10 9 -20 3 -33 -13 -23 -118
-123 -130 -123 -5 0 -16 8 -25 18 -16 18 -13 22 52 85 38 37 73 67 79 67 5 0
15 -6 21 -14z m101 -62 c24 -54 25 -95 6 -132 -8 -15 -61 -70 -118 -122 -56
-52 -142 -132 -190 -178 -112 -109 -118 -107 -118 32 0 126 -4 122 135 134
l97 9 59 59 59 58 0 83 c0 68 3 84 18 92 27 16 32 14 52 -35z m-104 -90 c-3
-11 -30 -44 -61 -73 -54 -51 -55 -52 -80 -35 -14 9 -25 20 -25 24 0 5 35 40
77 79 73 66 78 69 86 49 4 -13 6 -32 3 -44z m-212 -106 c24 -35 5 -58 -49 -58
-44 0 -50 5 -45 40 5 40 70 53 94 18z"/>
<path d="M4146 2158 c-13 -42 -15 -78 -3 -78 21 1 69 50 65 68 -4 21 -56 30
-62 10z"/>
<path d="M4012 5003 c4 -106 7 -123 33 -171 l28 -53 -12 -122 c-6 -67 -11
-204 -11 -304 l0 -181 28 -24 c15 -12 85 -59 155 -103 71 -44 176 -111 234
-148 77 -50 109 -65 117 -57 7 7 8 13 0 18 -5 4 -117 74 -247 155 -131 82
-242 157 -247 167 -6 11 -10 106 -10 217 0 224 -2 216 84 317 78 92 76 101
-29 201 l-85 82 0 61 c0 56 -2 62 -21 62 -21 0 -21 -3 -17 -117z"/>
<path d="M4140 5073 c7 -56 18 -79 54 -112 l26 -24 0 91 0 92 -43 0 -43 0 6
-47z"/>
<path d="M4260 5004 c0 -77 -3 -113 -10 -109 -6 4 -2 -8 10 -27 18 -30 20 -49
20 -243 0 -115 -4 -215 -8 -221 -4 -7 -18 -14 -32 -15 -20 -3 -25 -10 -26 -36
l-1 -32 25 19 c19 15 40 20 88 20 83 0 94 12 94 96 0 49 -3 64 -14 64 -19 0
-30 34 -21 68 6 26 7 26 21 8 13 -18 14 -16 11 19 l-2 39 58 2 c65 2 70 -6 35
-52 -20 -24 -24 -44 -28 -140 -6 -129 -15 -148 -82 -158 -41 -7 -68 -21 -68
-36 0 -4 24 -24 54 -45 53 -36 54 -36 85 -21 17 9 33 26 36 39 11 45 8 163 -5
208 -16 59 -10 84 40 146 47 59 50 89 14 132 -23 28 -32 31 -82 31 -102 0
-162 11 -162 29 0 14 16 16 113 16 l113 0 97 98 c53 55 102 97 109 95 23 -8
20 -38 -6 -69 -14 -17 -26 -34 -26 -39 0 -5 17 -22 37 -39 l38 -31 40 40 40
41 -27 49 c-34 62 -35 87 -3 130 14 19 25 35 25 37 0 2 -20 3 -44 3 -40 0 -44
-2 -49 -28 -3 -16 -29 -50 -62 -81 -57 -54 -76 -60 -145 -40 -12 3 -16 -9 -20
-53 -7 -80 -21 -91 -116 -92 -107 -2 -106 -3 -102 160 2 74 0 134 -4 134 -4 0
-9 -53 -10 -117 -2 -82 -7 -118 -15 -121 -10 -3 -13 25 -13 117 0 74 -4 121
-10 121 -6 0 -10 -45 -10 -116z m550 -89 c10 -12 10 -18 -1 -32 -22 -28 -32
-32 -51 -22 -23 12 -23 27 0 50 21 22 36 23 52 4z m-356 -187 c21 -30 13 -36
-39 -30 l-45 5 0 -125 c0 -138 -8 -161 -53 -141 -22 10 -22 14 -19 162 l3 151
69 0 c59 0 71 -3 84 -22z m16 -463 c10 -12 10 -18 0 -30 -15 -19 -21 -19 -45
-1 -16 12 -17 16 -6 30 17 20 35 20 51 1z"/>
<path d="M4547 5083 c7 -47 4 -43 44 -49 29 -5 41 0 77 31 23 20 42 41 42 46
0 5 -38 9 -84 9 l-85 0 6 -37z"/>
<path d="M4952 5092 c-12 -13 -20 -27 -17 -32 3 -6 45 -41 93 -80 l87 -70 3
37 c3 33 -1 40 -45 77 -26 22 -59 52 -73 66 l-25 25 -23 -23z"/>
<path d="M5086 5089 c28 -30 29 -30 32 -8 4 24 -12 39 -42 39 -17 0 -16 -4 10
-31z"/>
<path d="M4377 5103 c-4 -3 -7 -55 -7 -115 l0 -109 48 3 47 3 3 92 c3 111 -5
133 -52 133 -18 0 -36 -3 -39 -7z"/>
<path d="M2240 5047 c-25 -23 -68 -60 -95 -83 l-49 -41 27 -32 c24 -29 27 -41
27 -101 0 -59 -4 -73 -26 -100 -34 -40 -94 -70 -139 -70 -41 0 -81 -18 -109
-49 -25 -27 -36 -27 -36 2 1 59 54 103 133 109 79 6 109 34 105 97 -3 42 -8
49 -59 91 -31 25 -89 67 -129 94 -62 43 -74 48 -84 35 -6 -9 -22 -22 -36 -29
-14 -7 -64 -47 -113 -88 -69 -59 -85 -77 -76 -88 6 -8 15 -14 19 -14 4 0 38
24 75 52 65 51 71 53 139 56 95 5 147 -10 185 -53 45 -52 22 -95 -50 -95 -30
0 -42 -6 -59 -30 -26 -36 -53 -52 -74 -44 -25 9 -19 27 19 64 32 31 34 36 19
47 -14 10 -15 15 -4 28 16 19 64 19 80 0 18 -21 40 -19 40 5 0 31 -29 39 -119
33 -80 -6 -85 -8 -137 -50 -45 -37 -57 -42 -74 -33 -27 15 -25 7 14 -50 19
-28 42 -75 50 -104 9 -30 23 -57 32 -60 25 -10 132 -7 139 4 3 5 24 14 45 20
45 12 67 5 111 -37 l27 -25 73 77 c64 66 80 77 116 82 64 8 93 42 93 109 0 36
-7 64 -20 86 -16 27 -20 51 -20 125 0 50 -3 94 -8 97 -4 2 -28 -14 -52 -37z
m-18 -104 c22 -20 23 -41 1 -65 -20 -22 -41 -23 -65 -1 -23 21 -23 59 0 72 25
15 43 13 64 -6z m66 -100 c2 -14 -4 -26 -18 -33 -24 -13 -40 -6 -40 19 0 41
52 54 58 14z m-10 -106 c3 -23 0 -27 -22 -27 -33 0 -42 17 -20 41 22 25 38 20
42 -14z m-513 -42 c0 -23 -30 -32 -51 -14 -11 9 -12 15 -2 26 17 20 53 12 53
-12z m10 -75 c0 -18 -6 -26 -21 -28 -26 -4 -40 24 -23 45 18 21 44 11 44 -17z"/>
<path d="M2450 5061 c0 -5 18 -31 41 -57 23 -27 54 -76 70 -109 27 -55 29 -69
29 -172 0 -61 -5 -124 -10 -138 -6 -15 -30 -51 -55 -82 -44 -54 -45 -56 -45
-128 0 -40 3 -81 7 -90 3 -10 26 -30 50 -45 47 -30 119 -130 135 -188 11 -40
-3 -90 -39 -132 -29 -35 -18 -39 20 -9 59 46 54 131 -13 231 l-39 56 -5 171
-4 171 40 81 c34 67 41 92 42 143 1 76 -16 118 -60 148 -19 13 -59 53 -90 91
-51 62 -74 80 -74 58z m136 -775 c-8 -39 -12 -42 -41 -26 -37 20 -44 59 -14
83 23 19 24 19 42 -4 13 -16 17 -32 13 -53z"/>
<path d="M1135 5051 c-3 -6 -47 -39 -98 -74 -152 -107 -197 -167 -197 -262 0
-88 38 -139 147 -195 79 -41 122 -86 134 -139 11 -52 -5 -94 -39 -99 -24 -4
-25 -2 -42 68 -10 38 -29 61 -116 146 -119 116 -153 174 -155 264 0 45 -2 51
-10 31 -8 -21 -14 -23 -55 -18 -66 7 -84 0 -84 -34 0 -22 11 -37 48 -66 26
-21 79 -70 117 -109 39 -39 102 -98 142 -132 54 -46 75 -72 85 -104 9 -26 25
-49 40 -57 23 -13 29 -13 51 2 29 19 43 68 32 115 -8 40 -67 106 -120 138
-126 74 -159 200 -81 307 29 40 186 169 200 164 16 -5 19 -45 6 -78 -7 -16
-30 -43 -51 -59 -40 -33 -79 -101 -79 -141 0 -53 23 -99 81 -165 75 -84 91
-120 93 -207 1 -44 7 -71 15 -76 7 -5 38 -9 69 -10 35 -1 62 -7 71 -16 13 -12
16 -12 26 8 13 27 40 34 49 12 3 -10 -8 -30 -29 -54 -30 -33 -35 -45 -35 -89
0 -59 18 -85 105 -152 60 -46 72 -80 35 -100 -29 -15 -50 -5 -86 40 -18 22
-46 51 -63 66 l-31 26 -19 -24 c-16 -19 -23 -21 -38 -12 -24 14 -28 47 -8 64
8 7 15 21 15 30 0 10 12 32 26 49 30 36 29 75 -1 79 -15 2 -37 -16 -78 -63
-31 -37 -57 -72 -57 -78 0 -6 24 -34 53 -62 37 -36 88 -69 168 -108 64 -32
125 -57 137 -57 33 0 71 21 78 43 9 30 -11 57 -93 122 -94 75 -113 99 -113
142 0 49 11 64 95 133 l76 62 -3 121 -3 122 -70 52 c-58 44 -77 53 -112 53
-34 0 -46 6 -67 31 -14 17 -26 38 -26 46 0 30 -23 93 -35 93 -6 0 -28 -17 -48
-38 -46 -47 -52 -92 -12 -92 28 0 32 12 10 30 -19 15 -19 30 -1 30 7 0 36 -26
64 -59 47 -54 55 -59 101 -63 39 -4 60 -13 96 -43 25 -20 53 -49 63 -63 21
-32 23 -138 3 -175 -22 -42 -74 -61 -144 -53 -45 4 -64 2 -76 -8 -9 -8 -28
-18 -43 -21 l-28 -7 0 66 c0 79 -13 114 -81 213 -59 88 -79 130 -79 173 0 42
14 66 72 126 46 48 50 56 55 112 4 42 2 66 -7 77 -14 17 -36 20 -45 6z"/>
<path d="M2332 4989 c4 -43 14 -82 32 -114 20 -38 26 -64 26 -111 0 -70 -21
-102 -86 -129 -39 -16 -102 -63 -166 -123 -32 -31 -35 -37 -26 -62 5 -16 21
-36 35 -45 35 -23 55 -77 48 -129 -5 -34 -3 -45 13 -59 20 -18 20 -18 27 3 4
12 4 64 0 116 -7 89 -6 96 17 132 55 84 60 92 52 92 -5 0 -24 -23 -43 -51 -55
-81 -85 -43 -32 40 38 59 71 79 106 63 22 -10 27 -8 55 26 31 37 31 37 28 142
-3 101 -4 107 -35 149 -22 29 -33 55 -33 77 0 18 -5 36 -11 40 -9 5 -11 -10
-7 -57z"/>
<path d="M2385 5028 c4 -13 19 -38 34 -57 14 -18 35 -45 45 -59 15 -19 21 -46
24 -113 6 -132 0 -152 -71 -226 -50 -53 -59 -67 -51 -81 6 -9 19 -19 29 -21
16 -3 17 2 12 36 -6 35 -4 41 22 56 16 9 38 17 49 17 38 0 44 22 40 167 -3
153 5 129 -93 262 -33 45 -50 53 -40 19z"/>
<path d="M2565 5010 c3 -5 11 -10 16 -10 6 0 7 5 4 10 -3 6 -11 10 -16 10 -6
0 -7 -4 -4 -10z"/>
<path d="M4908 4980 c48 -65 43 -88 -28 -150 l-59 -51 6 -94 c6 -89 5 -94 -21
-127 -21 -28 -26 -46 -26 -91 0 -53 2 -58 30 -72 l30 -16 0 79 c0 53 7 98 21
139 18 55 30 71 115 148 52 48 94 93 94 100 0 14 -160 166 -182 174 -7 2 2
-16 20 -39z"/>
<path d="M255 4825 c-23 -22 -25 -31 -25 -129 0 -57 -3 -112 -6 -121 -4 -9
-28 -27 -54 -40 -51 -26 -60 -39 -60 -86 0 -42 -22 -79 -69 -117 -31 -25 -41
-40 -41 -62 0 -17 5 -30 10 -30 6 0 35 18 65 40 30 22 120 83 200 135 80 52
145 101 145 109 0 8 -20 29 -44 45 -24 17 -46 38 -50 46 -3 9 -6 66 -6 126 0
103 -1 109 -20 109 -12 0 -32 -11 -45 -25z m43 -202 c-3 -110 -4 -118 -23
-118 -19 0 -20 8 -23 104 -3 119 -1 131 28 131 20 0 21 -5 18 -117z m90 -104
c4 -19 -27 -34 -41 -20 -14 14 0 43 20 39 10 -2 19 -10 21 -19z m-168 -44 c10
-12 10 -18 0 -30 -17 -20 -37 -19 -48 3 -19 37 21 60 48 27z m69 -31 c-15 -18
-28 -18 -36 2 -8 20 17 36 34 22 10 -8 10 -14 2 -24z"/>
<path d="M90 4777 c12 -20 20 -55 22 -90 2 -48 -1 -60 -22 -83 -29 -30 -75
-56 -84 -47 -3 4 -6 -26 -6 -65 0 -40 2 -72 5 -72 10 0 35 60 35 84 0 17 13
34 43 57 23 19 45 38 49 44 4 5 8 45 8 87 0 67 -3 80 -22 98 -35 32 -51 25
-28 -13z"/>
<path d="M3668 4613 c2 -109 6 -200 8 -202 14 -14 19 29 22 174 3 134 0 169
-13 194 -8 17 -17 31 -18 31 -1 0 0 -89 1 -197z"/>
<path d="M4657 4770 c-15 -12 -28 -16 -32 -10 -3 5 -11 10 -16 10 -6 0 0 -14
12 -31 l22 -31 31 31 c21 21 27 34 20 41 -7 7 -19 4 -37 -10z"/>
<path d="M1364 4769 c-8 -13 11 -34 55 -61 20 -12 55 -37 79 -56 42 -34 68
-38 42 -7 -27 33 -170 133 -176 124z"/>
<path d="M0 4690 l1 -75 24 28 c24 27 24 29 9 65 -27 65 -34 61 -34 -18z"/>
<path d="M2977 4746 c-7 -19 27 -62 62 -81 25 -12 31 -12 50 1 27 19 16 43
-33 73 -39 24 -72 27 -79 7z"/>
<path d="M5014 4662 c-112 -96 -124 -117 -124 -213 0 -71 2 -77 19 -72 14 3
21 18 26 51 11 77 28 104 109 177 62 55 76 73 74 93 -2 14 -8 27 -14 29 -6 2
-46 -27 -90 -65z"/>
<path d="M4201 4683 c-6 -21 -11 -72 -11 -115 0 -69 -2 -78 -24 -95 -23 -17
-25 -24 -28 -141 -2 -101 0 -125 12 -133 176 -109 307 -179 319 -172 31 19 41
47 28 73 -11 21 -21 26 -72 30 -50 5 -72 14 -131 53 -73 47 -84 61 -84 102 0
17 -6 25 -22 27 -21 3 -23 9 -26 69 -3 61 -1 66 22 77 23 10 24 15 28 134 2
68 3 125 2 126 -1 2 -7 -13 -13 -35z"/>
<path d="M4706 4695 l-29 -23 -1 -130 c-1 -123 -2 -132 -25 -156 -13 -14 -40
-29 -58 -32 l-35 -7 4 -102 c4 -125 6 -128 151 -217 104 -64 137 -97 137 -134
0 -29 74 -87 101 -79 10 3 35 -8 64 -30 54 -42 98 -45 103 -8 4 24 -27 46
-333 237 -77 47 -147 92 -156 99 -63 48 -48 155 33 250 32 38 33 42 36 144 4
99 5 105 28 115 20 9 24 18 24 55 0 23 -3 43 -7 43 -5 -1 -21 -11 -37 -25z"/>
<path d="M1191 4654 c-38 -27 -16 -83 28 -69 31 10 44 31 32 53 -15 28 -35 33
-60 16z"/>
<path d="M2878 4638 c-8 -16 -12 -65 -11 -153 3 -197 2 -193 23 -200 11 -3 33
-19 49 -35 43 -39 39 -12 -4 30 -35 34 -35 35 -35 121 0 49 5 100 12 114 17
38 71 67 115 63 21 -2 38 2 40 8 2 8 -18 13 -58 16 -52 4 -66 9 -85 31 -28 33
-30 33 -46 5z"/>
<path d="M3266 4604 c-13 -12 -16 -39 -16 -123 0 -122 6 -135 62 -129 l33 3 3
119 c2 78 -1 123 -9 132 -15 19 -54 18 -73 -2z"/>
<path d="M1288 4592 c98 -73 124 -96 138 -123 15 -31 15 -32 -10 -58 l-26 -26
0 27 c0 42 -35 70 -103 82 -28 5 -39 3 -43 -8 -6 -15 26 -86 48 -103 37 -31
159 -22 172 13 13 34 6 114 -12 132 -45 45 -90 70 -137 75 -49 6 -50 6 -27
-11z"/>
<path d="M5077 4545 c-20 -14 -42 -35 -49 -48 -12 -20 -26 -149 -31 -277 -2
-60 -18 -73 -62 -50 -46 25 -48 3 -3 -28 50 -34 68 -38 99 -22 24 14 24 35 -1
67 -43 55 -18 137 64 212 21 20 26 33 26 75 l0 50 -51 -49 c-50 -49 -51 -49
-45 -20 6 29 44 72 82 93 11 6 16 13 13 16 -3 3 -22 -6 -42 -19z"/>
<path d="M4593 4521 c-41 -39 -50 -61 -37 -95 8 -20 57 -21 73 -2 7 9 11 39 9
76 l-3 62 -42 -41z"/>
<path d="M2977 4512 c-22 -24 -21 -55 1 -75 38 -35 102 -9 102 40 0 47 -71 71
-103 35z"/>
<path d="M3726 4470 c-5 -44 -16 -76 -33 -99 -22 -28 -23 -32 -6 -22 39 20 54
57 51 124 l-3 62 -9 -65z"/>
<path d="M1927 4490 c-21 -17 -40 -20 -116 -20 l-91 0 1 -115 c1 -84 5 -118
15 -126 8 -6 14 -17 14 -24 0 -19 -34 -45 -58 -45 -30 0 -28 -24 3 -44 15 -10
25 -26 25 -40 0 -54 22 -86 105 -151 125 -97 125 -97 125 -258 l0 -135 -39
-31 c-21 -17 -44 -31 -49 -31 -7 0 -12 58 -14 161 l-3 161 -40 35 c-22 19 -62
56 -90 81 -27 26 -79 69 -115 96 -77 58 -80 61 -80 104 0 23 10 42 35 70 39
41 38 44 20 -42 -4 -21 2 -30 38 -54 34 -24 46 -28 59 -18 13 10 11 14 -18 36
-59 44 -62 81 -14 157 10 15 11 26 5 32 -11 10 -169 -110 -187 -142 -20 -37 1
-66 95 -136 87 -64 157 -135 157 -159 0 -6 -8 -24 -17 -41 l-18 -30 72 -68
c43 -41 75 -79 79 -97 4 -16 4 -80 1 -142 l-6 -113 41 -36 c23 -19 46 -35 50
-35 10 0 52 47 80 89 16 23 18 55 18 272 0 215 -2 248 -16 253 -8 3 -23 2 -33
-4 -14 -7 -27 0 -61 35 -35 36 -51 45 -78 45 -77 0 -107 88 -56 163 24 36 26
77 4 77 -5 0 -17 11 -25 24 -13 20 -14 29 -5 46 10 18 17 21 49 15 25 -4 51
-1 76 9 21 9 54 16 74 16 29 0 44 7 67 31 26 29 27 31 5 19 -14 -7 -42 -10
-68 -7 -33 3 -49 0 -67 -14 -32 -25 -131 -27 -140 -3 -11 30 -6 53 16 68 30
21 129 21 170 0 36 -19 73 -12 88 16 9 16 6 25 -14 45 -30 30 -36 31 -69 5z
m-145 -677 c42 -38 0 -90 -48 -58 -23 15 -33 53 -17 68 12 12 46 7 65 -10z
m187 -415 c-17 -34 -51 -68 -66 -68 -26 0 -9 44 26 67 43 29 55 29 40 1z"/>
<path d="M558 4423 c-8 -10 -18 -23 -22 -30 -10 -17 19 -70 49 -89 23 -15 27
-15 51 0 33 23 39 40 24 77 -23 54 -73 75 -102 42z"/>
<path d="M352 4395 c-28 -20 -52 -39 -52 -43 0 -4 11 -14 24 -22 12 -8 44 -39
70 -68 42 -48 45 -55 34 -76 -7 -13 -51 -54 -98 -92 l-85 -69 -95 -3 c-73 -3
-98 -7 -107 -20 -8 -10 -13 -47 -13 -97 0 -76 2 -85 32 -126 20 -27 34 -61 38
-88 8 -66 29 -73 79 -28 46 42 51 43 90 22 28 -14 29 -14 35 13 4 15 23 52 42
84 38 62 37 75 -10 137 -28 37 -37 93 -13 72 11 -8 18 -6 31 8 14 15 15 21 4
27 -7 5 -17 9 -22 9 -26 0 -11 27 36 66 29 23 59 49 66 58 20 24 14 63 -15 93
-25 26 -25 29 -10 46 9 10 17 30 17 44 0 36 -11 88 -19 88 -3 0 -30 -16 -59
-35z m-72 -455 c64 -77 70 -101 40 -157 -27 -50 -71 -68 -142 -57 -57 9 -75
19 -93 54 -19 38 -19 49 6 130 22 74 38 88 101 89 34 1 42 -5 88 -59z"/>
<path d="M160 3955 c0 -8 7 -15 15 -15 8 0 15 7 15 15 0 8 -7 15 -15 15 -8 0
-15 -7 -15 -15z"/>
<path d="M181 3876 c-7 -8 -11 -30 -9 -48 6 -64 98 -58 98 7 0 44 -63 73 -89
41z"/>
<path d="M810 4366 c0 -53 5 -77 22 -104 20 -33 21 -37 5 -64 -13 -22 -13 -28
-2 -28 7 0 16 -6 19 -12 3 -7 4 42 3 109 -2 112 -4 124 -24 145 l-23 22 0 -68z"/>
<path d="M2325 4413 c-14 -14 -16 -36 -13 -152 4 -165 3 -164 141 -269 l100
-75 29 32 c21 24 28 41 28 74 0 55 -22 87 -104 148 -37 28 -73 60 -80 72 -8
12 -17 54 -20 92 -8 89 -40 119 -81 78z m39 -99 c10 -4 16 -18 16 -41 0 -51
13 -68 89 -113 72 -42 121 -90 121 -119 0 -9 -13 -30 -29 -45 -23 -23 -33 -26
-48 -17 -40 21 -45 36 -18 61 24 23 25 23 45 5 30 -27 24 -10 -11 30 -37 41
-64 47 -55 11 8 -31 -15 -51 -42 -37 -10 5 -35 28 -55 51 -37 40 -37 40 -37
130 0 50 2 90 4 90 2 0 11 -3 20 -6z"/>
<path d="M2053 4327 c-52 -48 -43 -69 64 -157 78 -64 88 -69 102 -55 14 14 8
22 -58 89 l-73 74 22 30 c42 57 0 71 -57 19z"/>
<path d="M3598 4340 c-12 -40 -10 -106 3 -93 5 5 9 34 7 64 -2 42 -5 48 -10
29z"/>
<path d="M2977 4343 c-12 -12 -7 -34 13 -60 37 -48 21 -153 -23 -153 -26 0
-47 20 -68 65 -19 40 -33 38 -37 -5 -5 -72 56 -130 137 -130 46 0 91 21 91 41
0 6 -9 22 -20 36 -16 21 -20 41 -20 107 0 51 -5 87 -12 94 -13 13 -50 16 -61
5z"/>
<path d="M905 4320 c-20 -22 -15 -44 14 -59 36 -20 69 37 39 67 -17 17 -32 15
-53 -8z"/>
<path d="M4719 4309 c-41 -21 -62 -63 -53 -109 8 -36 13 -40 147 -125 60 -37
132 -85 160 -106 28 -22 57 -39 63 -39 15 0 24 98 11 123 -7 15 -16 18 -42 13
-28 -6 -42 1 -111 51 -73 53 -83 57 -134 58 -54 0 -55 0 -55 30 l0 30 103 2
c130 1 134 3 130 50 -3 34 -6 38 -28 35 -92 -12 -120 -13 -136 -4 -14 7 -29 5
-55 -9z"/>
<path d="M5096 4288 c-21 -30 -20 -61 4 -89 l19 -24 1 68 c0 37 -2 67 -4 67
-3 0 -12 -10 -20 -22z"/>
<path d="M98 4213 c-93 -65 -97 -70 -97 -105 -1 -34 1 -37 20 -29 12 4 39 3
60 -3 27 -7 44 -6 61 2 l23 11 -25 -5 c-36 -7 -77 11 -85 37 -6 18 -1 28 21
46 41 33 77 29 121 -11 l36 -33 49 30 c26 16 48 33 48 37 0 18 -96 90 -120 90
-9 0 -59 -30 -112 -67z"/>
<path d="M1885 4268 c-44 -25 -49 -77 -10 -102 25 -17 27 -16 60 17 19 19 35
42 35 50 0 31 -54 53 -85 35z"/>
<path d="M1080 4219 c-19 -12 -61 -42 -93 -66 -55 -43 -57 -45 -51 -82 l6 -37
-189 -142 c-190 -143 -233 -186 -233 -236 0 -46 -15 -62 -155 -165 -73 -55
-138 -109 -144 -120 -7 -12 -11 -96 -11 -218 0 -152 -3 -204 -14 -218 -11 -16
-11 -23 6 -52 17 -27 19 -47 16 -104 -4 -83 -13 -93 -91 -103 -71 -10 -127
-48 -127 -88 l0 -30 52 41 c30 25 74 48 107 57 31 9 61 20 66 26 6 6 10 131
10 337 0 384 -18 330 153 458 124 93 136 107 151 173 10 48 34 74 145 159 53
41 76 46 76 16 0 -8 -30 -39 -67 -68 -92 -74 -109 -94 -123 -147 -15 -56 -39
-83 -162 -176 -54 -41 -102 -83 -108 -94 -6 -11 -10 -133 -10 -321 l0 -301 29
5 c30 6 56 -13 80 -61 19 -37 -3 -97 -47 -127 -20 -14 -45 -25 -55 -25 -10 0
-29 -13 -42 -29 -21 -24 -34 -29 -87 -34 -61 -5 -64 -7 -115 -64 -72 -80 -67
-103 6 -26 62 66 90 79 146 69 58 -11 158 -61 190 -95 29 -31 30 -37 33 -135
l4 -103 -127 -97 c-122 -94 -127 -97 -146 -80 -16 15 -19 31 -19 127 0 107 1
109 28 136 60 56 114 86 153 86 24 0 39 4 39 12 0 30 -141 103 -199 103 -17 0
-46 -21 -93 -68 l-68 -69 0 -71 c0 -39 4 -74 10 -77 6 -4 10 -85 10 -210 l0
-203 30 -26 c17 -14 54 -33 83 -42 52 -16 52 -16 110 11 31 15 60 31 62 36 3
4 -5 18 -18 31 -13 13 -29 33 -35 43 -11 20 -11 20 -48 0 -20 -11 -46 -32 -58
-48 -16 -22 -26 -27 -46 -22 -13 4 -28 12 -32 18 -12 20 -10 475 3 500 6 12
25 34 42 48 26 22 29 29 19 42 -18 21 4 66 35 73 31 8 40 -2 25 -26 -17 -27
-15 -50 4 -50 25 0 11 -22 -33 -55 -23 -16 -46 -40 -52 -53 -7 -14 -11 -84
-11 -175 1 -134 3 -155 19 -175 24 -27 31 -28 31 -2 0 13 39 51 123 116 67 53
137 111 155 127 l32 31 0 262 0 262 -43 52 c-23 29 -53 66 -67 83 l-25 30 0
268 c0 317 -13 282 156 412 63 48 120 95 127 104 6 9 12 38 12 63 0 38 5 51
28 72 34 33 151 108 167 108 24 0 36 26 25 54 -9 24 -6 31 28 66 20 22 91 82
156 132 139 109 147 118 126 155 -20 35 -29 37 -70 12z m-697 -1747 c15 -15
27 -38 27 -49 0 -19 -5 -21 -58 -19 -56 3 -102 18 -102 36 0 15 64 60 86 60
11 0 32 -13 47 -28z m-120 -780 c10 -10 14 -22 10 -25 -7 -8 -43 21 -43 35 0
14 16 9 33 -10z"/>
<path d="M1999 4164 c-10 -12 -6 -21 20 -48 45 -46 168 -129 181 -121 23 14 5
36 -89 108 -85 64 -102 73 -112 61z"/>
<path d="M765 4130 c-15 -16 -65 -55 -111 -87 -90 -63 -103 -79 -80 -101 17
-17 8 -21 159 87 114 83 133 101 102 101 -9 0 -18 7 -21 15 -9 21 -17 19 -49
-15z"/>
<path d="M1782 4118 c-22 -22 -15 -64 13 -76 23 -10 29 -9 50 12 20 20 23 30
16 48 -9 26 -58 37 -79 16z"/>
<path d="M3680 4026 c-78 -75 -108 -97 -142 -105 -89 -22 -105 -41 -107 -123
-1 -43 6 -46 51 -18 27 16 34 27 38 62 5 42 6 43 40 42 192 -7 190 -7 210 11
16 15 20 31 20 83 0 65 0 65 -20 47 -19 -17 -22 -17 -36 -3 -14 14 -11 19 32
57 31 27 41 41 30 41 -10 0 -62 -42 -116 -94z m54 -42 c13 -34 -47 -90 -81
-77 -22 8 -15 60 9 77 29 21 64 20 72 0z"/>
<path d="M1900 4072 c0 -22 12 -38 52 -71 34 -28 57 -39 67 -35 9 4 26 8 39 8
12 1 22 2 22 4 0 5 -163 122 -171 122 -5 0 -9 -13 -9 -28z"/>
<path d="M844 4043 c-21 -14 -101 -71 -176 -126 -122 -88 -155 -117 -131 -117
9 0 341 239 349 251 12 21 -3 18 -42 -8z"/>
<path d="M2244 4057 c3 -10 6 -25 6 -32 0 -8 14 -30 31 -50 18 -20 28 -39 24
-43 -3 -4 -31 -7 -60 -7 -50 0 -52 -1 -38 -17 24 -27 6 -41 -24 -18 -28 22
-58 26 -68 10 -4 -6 -6 -93 -6 -193 1 -248 -10 -371 -35 -398 -23 -26 -130
-79 -160 -79 -12 0 -56 22 -98 50 -63 41 -76 54 -77 77 -2 57 3 95 17 128 8
19 14 56 14 83 0 73 -25 91 -229 167 -178 66 -248 101 -339 167 -52 38 -65 39
-38 3 9 -12 11 -27 6 -40 -10 -28 -2 -45 22 -45 11 0 35 -9 53 -20 28 -17 37
-19 59 -8 23 10 30 9 49 -10 17 -17 19 -26 11 -39 -18 -29 -42 -39 -62 -26
-12 7 -24 8 -36 1 -13 -7 -22 -5 -35 6 -9 8 -48 32 -86 53 -37 21 -73 46 -79
56 -11 19 -7 24 40 53 16 10 14 14 -22 53 l-39 42 -32 -23 c-43 -30 -42 -55 7
-116 22 -27 40 -54 40 -60 0 -5 -51 -46 -112 -90 -62 -44 -122 -89 -132 -101
-39 -43 -90 -19 -84 41 3 28 11 38 58 65 31 19 68 33 87 33 22 0 43 9 65 30
l33 29 -21 38 c-32 56 -52 55 -56 -4 l-3 -47 -85 -47 c-93 -51 -120 -83 -120
-140 0 -52 -26 -79 -161 -170 -66 -44 -119 -86 -119 -94 0 -20 5 -19 36 10 31
29 46 31 64 10 10 -12 3 -25 -38 -72 -27 -32 -55 -68 -61 -80 -7 -13 -11 -83
-11 -183 0 -179 7 -205 77 -284 57 -63 63 -87 63 -266 0 -88 3 -160 8 -160 4
0 21 9 37 20 30 19 30 20 38 142 15 242 20 210 -51 280 l-62 61 0 186 c0 233
0 232 126 286 59 25 109 39 149 42 53 4 65 1 106 -25 26 -17 58 -46 73 -65 24
-32 28 -48 36 -153 11 -148 24 -169 170 -274 125 -91 150 -128 150 -227 0 -73
16 -84 26 -17 11 73 0 139 -28 176 -14 19 -78 69 -142 112 -65 43 -125 90
-134 104 -12 19 -19 57 -23 142 -5 99 -9 122 -33 168 -23 46 -27 65 -25 123 4
112 -35 135 -134 80 -28 -16 -87 -44 -130 -62 -113 -47 -89 -45 32 2 110 43
129 44 175 8 20 -16 25 -26 20 -43 -11 -37 -22 -41 -48 -17 -15 14 -32 21 -43
18 -10 -3 -76 -26 -146 -51 -103 -37 -132 -44 -148 -35 -28 15 -20 29 32 57
24 12 33 20 19 16 -40 -10 -44 -10 -48 8 -5 24 114 100 216 137 108 40 136 55
203 107 97 75 129 79 231 32 l69 -32 77 24 c146 44 175 46 254 21 112 -36 128
-63 128 -220 0 -83 18 -165 48 -217 19 -35 104 -101 140 -109 31 -6 32 -6 32
29 0 52 59 96 132 96 10 0 27 14 40 30 28 39 38 38 38 -4 0 -51 -38 -86 -93
-86 -61 0 -85 -32 -54 -73 10 -14 18 -15 49 -7 51 15 93 52 112 101 20 49 14
88 -20 139 -33 49 -32 106 4 156 26 37 27 45 28 164 2 166 0 154 35 195 56 63
141 66 224 6 l42 -30 19 20 c19 21 19 22 -21 56 -22 19 -67 50 -100 70 -33 19
-78 51 -99 71 -24 23 -37 30 -32 19z m-1028 -347 c24 -22 52 -40 63 -40 10 0
47 16 81 35 34 19 73 35 86 35 31 0 94 -26 94 -39 0 -5 -24 -12 -52 -16 -29
-4 -82 -16 -117 -27 -72 -22 -131 -20 -201 7 -73 28 -137 17 -205 -34 -36 -28
-60 -40 -67 -33 -14 14 78 92 153 130 78 40 106 37 165 -18z m625 -485 c12
-19 26 -36 32 -36 7 -1 19 -2 27 -3 18 -1 26 -34 11 -49 -11 -11 -63 19 -114
67 -24 22 -27 29 -17 41 20 24 39 17 61 -20z"/>
<path d="M429 4024 c-1 -5 0 -21 1 -36 1 -16 -5 -30 -16 -36 -15 -8 -15 -11 1
-36 10 -15 31 -36 47 -47 l29 -21 25 23 c13 12 24 27 24 33 -1 14 -110 132
-111 120z"/>
<path d="M4583 4013 c-9 -23 34 -56 64 -48 23 6 73 -14 106 -43 10 -9 17 -29
17 -54 0 -21 5 -38 10 -38 13 0 13 66 -1 91 -6 12 -37 33 -69 48 -32 15 -66
35 -75 44 -21 22 -44 22 -52 0z"/>
<path d="M4520 3966 c0 -3 31 -23 68 -45 55 -32 81 -57 135 -127 75 -99 80
-120 46 -192 -18 -37 -19 -46 -8 -53 21 -13 25 -12 53 22 29 35 33 54 11 63
-16 6 -10 36 8 36 6 0 19 -7 29 -17 10 -9 21 -14 23 -11 6 5 -168 212 -196
234 -23 18 -169 96 -169 90z"/>
<path d="M1634 3869 c-10 -17 23 -46 38 -31 8 8 8 15 -2 27 -15 18 -26 19 -36
4z"/>
<path d="M4012 3745 c-3 -163 -10 -194 -57 -254 -47 -59 -44 -83 13 -95 40 -8
43 -11 37 -35 -7 -27 -21 -41 -42 -41 -33 0 3 -64 41 -74 33 -8 73 8 81 33 9
30 -11 61 -40 61 l-25 0 -3 273 c-1 149 -3 209 -5 132z"/>
<path d="M2547 3802 c-22 -24 -22 -45 1 -65 25 -23 55 -21 78 4 17 19 17 23 3
47 -18 33 -58 40 -82 14z"/>
<path d="M2252 3778 c-8 -8 -12 -52 -12 -130 0 -107 -2 -124 -25 -168 -29 -57
-26 -86 11 -121 l24 -23 -6 31 c-4 19 0 42 10 61 12 24 16 63 16 175 0 116 3
147 15 157 8 7 22 10 30 6 12 -4 15 -26 15 -113 l1 -108 34 65 c39 75 53 143
35 165 -15 19 -130 21 -148 3z"/>
<path d="M4935 3741 c52 -35 61 -39 74 -26 22 21 -12 55 -53 54 -17 -1 -42 2
-56 6 -14 4 1 -11 35 -34z"/>
<path d="M4362 3748 c-25 -25 -4 -78 32 -78 10 0 36 32 36 45 0 17 -27 45 -44
45 -6 0 -17 -5 -24 -12z"/>
<path d="M4597 3748 c-15 -12 -17 -40 -19 -253 -1 -251 -5 -277 -48 -333 -20
-25 -20 -27 -4 -39 10 -7 27 -13 39 -13 27 0 125 86 125 110 0 20 -38 55 -71
65 -18 6 -19 17 -19 155 l0 148 35 22 c61 38 69 72 29 119 -28 34 -41 37 -67
19z"/>
<path d="M1 3695 c0 -55 1 -58 14 -41 19 25 19 57 0 82 -13 17 -14 14 -14 -41z"/>
<path d="M391 3721 c-15 -15 -18 -28 -14 -59 6 -47 3 -50 -110 -123 -42 -28
-89 -67 -102 -87 -23 -34 -25 -45 -25 -167 0 -84 -5 -139 -13 -155 -7 -14 -38
-45 -70 -70 l-57 -45 0 -57 0 -57 43 19 c23 11 52 20 64 20 12 0 30 11 41 25
18 23 20 39 18 212 -2 128 1 198 10 219 13 33 35 53 191 169 56 41 105 85 108
96 8 24 -22 72 -48 77 -9 2 -25 -6 -36 -17z m-245 -686 c9 -35 -2 -55 -29 -55
-27 0 -47 17 -47 40 0 43 65 56 76 15z"/>
<path d="M2456 3698 c-3 -18 -20 -67 -37 -108 -29 -70 -31 -79 -25 -157 7 -78
6 -84 -17 -106 -13 -13 -30 -26 -38 -29 -23 -8 16 -44 109 -99 114 -68 145
-79 237 -89 60 -6 83 -13 95 -27 14 -19 20 -15 132 86 82 73 118 112 118 127
0 32 -223 213 -342 279 l-48 26 0 -101 c0 -67 5 -110 14 -128 8 -15 44 -49 80
-76 36 -27 66 -52 66 -57 0 -15 -49 -10 -88 10 -20 10 -57 37 -82 59 l-45 39
-3 149 c-4 138 -9 163 -33 164 -12 0 -63 -147 -62 -180 1 -50 21 -85 93 -158
74 -76 143 -112 215 -112 41 0 58 7 98 35 26 20 47 39 47 45 0 21 -23 20 -51
-4 -17 -14 -35 -26 -40 -26 -15 0 -107 89 -128 124 -21 36 -37 146 -21 146 23
0 71 -32 148 -97 44 -38 96 -81 116 -96 20 -15 36 -34 36 -42 0 -8 -35 -44
-77 -80 -86 -73 -76 -71 -217 -46 -64 11 -91 29 -178 115 -102 100 -124 171
-88 288 32 104 38 134 30 148 -4 7 -10 -2 -14 -22z"/>
<path d="M5012 3584 c-64 -54 -108 -84 -117 -80 -25 9 -17 26 32 72 26 24 43
47 40 51 -9 8 -147 -127 -147 -144 0 -14 36 -27 51 -18 5 4 23 2 39 -5 28 -11
32 -9 119 66 80 69 91 82 91 111 0 18 -1 33 -3 33 -2 0 -49 -39 -105 -86z"/>
<path d="M200 3595 c-60 -46 -95 -53 -124 -26 l-22 21 -29 -30 c-30 -32 -28
-55 3 -27 24 22 42 21 42 -2 0 -10 -16 -31 -35 -45 l-35 -27 0 -150 c0 -147 0
-150 20 -139 16 9 22 7 27 -6 4 -12 -3 -24 -22 -40 -35 -28 -27 -44 9 -17 31
23 47 55 35 74 -5 8 -9 57 -9 109 0 70 5 105 19 135 17 37 113 136 167 172 13
8 21 19 18 24 -8 14 -16 11 -64 -26z"/>
<path d="M1355 3555 c-140 -52 -130 -50 -160 -26 -32 25 -67 27 -85 6 -7 -8
-19 -15 -26 -15 -8 0 -14 -4 -14 -10 0 -5 17 -10 39 -10 30 0 47 -8 82 -38
l43 -39 21 31 c27 40 111 85 174 93 42 5 60 1 105 -21 30 -15 66 -40 80 -57
22 -26 25 -39 25 -112 0 -45 5 -109 11 -142 5 -33 10 -82 10 -108 0 -39 5 -53
26 -72 35 -33 54 -31 89 5 27 28 27 30 11 55 -9 14 -37 44 -61 66 -55 51 -65
83 -65 220 0 119 -4 126 -89 169 -68 34 -133 35 -216 5z m413 -462 c4 -28 -32
-50 -54 -32 -17 14 -18 31 -2 47 19 19 53 10 56 -15z"/>
<path d="M1007 3549 c-14 -8 -16 -14 -6 -25 13 -16 44 -19 34 -4 -4 6 -1 17 5
25 15 18 -5 20 -33 4z"/>
<path d="M4681 3448 c2 -85 11 -110 46 -131 30 -17 34 -17 62 -2 22 11 31 23
31 40 0 27 -46 69 -68 60 -25 -9 -34 6 -15 27 17 19 17 20 -7 39 -41 31 -50
25 -49 -33z"/>
<path d="M1343 3454 c-50 -29 -53 -47 -18 -94 34 -46 34 -108 0 -148 -33 -40
-101 -72 -151 -72 -48 0 -80 -28 -90 -78 -11 -57 9 -83 136 -171 135 -94 205
-164 220 -222 13 -49 6 -77 -27 -106 -36 -29 -25 -53 25 -53 48 0 64 12 96 74
30 57 35 140 11 172 -9 12 -14 44 -15 92 0 40 -5 83 -11 95 -28 54 -99 75
-132 39 -20 -22 -23 -92 -5 -110 19 -19 56 -14 68 9 14 26 -3 49 -36 49 -26 0
-31 19 -12 38 19 19 47 14 73 -12 23 -23 25 -32 24 -109 -1 -77 1 -88 25 -119
26 -34 34 -81 18 -106 -6 -9 -21 1 -55 37 -42 44 -47 55 -47 96 0 42 -2 45
-26 45 -36 0 -81 50 -89 101 -9 50 -36 69 -116 78 -35 4 -65 14 -70 22 -13 21
-11 93 3 107 14 14 136 16 157 3 7 -5 27 -5 42 -1 26 8 28 7 19 -10 -6 -11
-20 -25 -31 -31 -20 -10 -39 -9 -131 7 -34 6 -38 4 -38 -15 0 -26 5 -28 92
-35 65 -5 68 -4 98 25 l30 31 0 177 c0 193 6 216 51 209 l24 -3 3 -198 2 -197
70 -69 70 -68 0 -167 c0 -188 -6 -213 -64 -264 -46 -40 -97 -62 -148 -62 -26
0 -41 -5 -45 -15 -8 -22 -5 -23 58 -16 48 6 67 15 141 70 l85 63 7 96 c9 140
7 287 -3 314 -5 13 -28 43 -51 67 -27 30 -39 50 -34 60 13 31 26 130 20 155
-3 13 -22 41 -41 62 -38 40 -46 82 -20 104 20 17 41 7 64 -30 12 -20 20 -26
23 -18 11 27 -12 57 -70 92 -73 44 -119 47 -179 10z m184 -196 c19 -18 23 -32
23 -84 0 -35 -5 -66 -11 -69 -6 -4 -21 3 -35 16 -21 20 -24 31 -24 91 0 75 8
83 47 46z"/>
<path d="M2730 3467 c0 -16 26 -47 39 -47 4 0 16 6 27 14 24 18 12 33 -34 42
-25 5 -32 3 -32 -9z"/>
<path d="M5065 3439 c-27 -22 -75 -57 -105 -79 -30 -21 -77 -59 -105 -84 -48
-43 -49 -45 -23 -46 20 0 53 23 125 86 119 104 127 109 147 88 15 -14 16 -11
16 30 0 25 -1 46 -2 45 -2 0 -25 -18 -53 -40z"/>
<path d="M1035 3395 c-49 -48 -20 -128 45 -128 39 0 80 40 80 79 0 32 -42 74
-75 74 -14 0 -37 -11 -50 -25z"/>
<path d="M2806 3385 c-3 -8 6 -27 19 -42 22 -26 25 -27 41 -11 16 16 16 18 0
42 -18 29 -51 34 -60 11z"/>
<path d="M2310 3370 c0 -5 7 -10 15 -10 8 0 15 5 15 10 0 6 -7 10 -15 10 -8 0
-15 -4 -15 -10z"/>
<path d="M3573 3352 c-17 -15 -43 -35 -57 -45 -23 -16 -26 -25 -26 -76 0 -45
5 -65 22 -86 l22 -28 18 23 c14 17 18 40 18 97 0 60 4 81 21 105 28 39 21 43
-18 10z"/>
<path d="M5102 3351 c-10 -16 -11 -26 -3 -34 15 -15 23 -3 19 30 l-3 28 -13
-24z"/>
<path d="M1247 3343 c-4 -3 -7 -16 -7 -28 0 -31 -51 -75 -112 -95 -44 -16 -48
-19 -23 -19 96 -1 175 44 175 100 0 27 -21 54 -33 42z"/>
<path d="M4978 3266 c-53 -50 -68 -71 -73 -102 -15 -90 -40 -124 -92 -124 -27
0 -43 -8 -69 -34 l-34 -34 2 -223 c3 -254 5 -261 72 -215 21 14 42 26 46 26 4
0 24 -15 46 -34 38 -34 39 -35 23 -63 -18 -32 -58 -36 -90 -7 -18 16 -21 16
-65 -7 -40 -21 -503 -448 -648 -598 -71 -73 -49 -75 29 -2 37 34 75 61 87 61
22 0 80 -58 104 -103 14 -26 13 -32 -7 -70 -21 -40 -21 -52 -18 -292 1 -137 3
-277 4 -310 0 -33 2 -140 3 -237 1 -111 6 -178 12 -178 6 0 10 135 10 386 l0
386 25 30 c23 27 25 37 25 133 0 57 -5 116 -11 131 -5 16 -32 52 -60 81 -27
28 -49 60 -49 70 0 10 12 33 28 50 66 74 460 441 481 448 17 5 44 -3 99 -30
70 -35 78 -37 101 -24 48 27 39 51 -51 141 -46 46 -102 105 -126 131 -43 49
-43 49 -37 106 8 65 22 91 80 147 33 32 45 52 50 85 12 72 52 135 127 195 37
30 68 59 68 63 0 5 -7 12 -16 15 -12 5 -15 14 -10 36 3 17 4 30 3 30 -1 0 -32
-29 -69 -64z"/>
<path d="M3655 3256 c-42 -64 41 -130 95 -76 11 11 20 29 20 40 0 54 -86 81
-115 36z"/>
<path d="M760 3243 c-31 -12 -50 -37 -50 -68 0 -39 25 -72 62 -81 22 -5 34 0
59 25 25 26 30 37 24 59 -11 46 -58 78 -95 65z"/>
<path d="M2257 3214 c-9 -57 -53 -119 -116 -169 -70 -53 -99 -57 -155 -19 -48
33 -96 48 -96 30 0 -22 35 -45 101 -67 35 -12 71 -25 79 -29 9 -5 30 0 55 13
22 11 65 26 95 32 53 12 55 13 53 44 0 18 -8 40 -17 50 -13 14 -14 24 -7 45
13 32 19 32 62 3 23 -15 35 -32 37 -52 2 -16 10 -38 18 -49 20 -29 17 -56 -8
-84 -23 -23 -23 -24 -3 -38 18 -14 22 -13 43 11 12 14 22 36 22 48 0 26 -35
87 -50 87 -5 0 -10 11 -10 24 0 55 79 27 128 -44 54 -80 -2 -179 -120 -214
-63 -18 -88 -41 -88 -80 0 -27 38 -75 62 -77 7 -1 24 -3 37 -4 13 -1 41 -21
62 -44 39 -42 53 -49 64 -31 16 25 59 7 136 -56 44 -36 84 -74 89 -84 6 -10
10 -52 10 -93 0 -88 -8 -79 176 -210 124 -89 130 -95 166 -165 31 -60 38 -84
38 -131 0 -57 1 -60 58 -122 33 -35 64 -74 70 -86 7 -12 12 -64 12 -116 0 -94
0 -94 40 -150 47 -65 70 -124 70 -177 0 -60 -55 -156 -132 -230 -38 -36 -68
-71 -68 -78 0 -16 105 65 172 132 l48 49 0 108 c0 123 -5 139 -60 213 -38 50
-40 57 -40 123 0 80 3 83 79 83 44 0 50 3 109 63 60 60 62 64 62 114 0 41 -5
58 -26 82 -15 18 -35 31 -49 31 -22 0 -21 -2 11 -34 23 -23 34 -43 34 -62 -1
-34 -8 -45 -72 -103 l-47 -43 -54 26 c-76 36 -127 94 -127 146 0 31 4 40 18
40 10 1 3 8 -18 18 -88 45 -115 80 -113 149 1 38 -20 59 -140 142 -42 29 -79
62 -83 73 -8 27 10 59 50 85 41 27 52 64 31 105 -8 17 -15 54 -15 82 0 49 -2
52 -64 111 -36 33 -69 71 -75 85 l-10 25 0 -27 c-1 -18 11 -41 34 -67 40 -44
43 -56 15 -71 -11 -6 -20 -18 -20 -28 0 -14 4 -13 19 7 l18 23 20 -35 c37 -62
38 -75 4 -122 -24 -34 -31 -54 -31 -90 0 -46 0 -46 -31 -43 -62 6 -63 50 -4
136 19 28 32 57 29 64 -3 7 -62 51 -132 98 -121 81 -130 85 -182 85 -44 0 -55
3 -58 17 -3 15 48 58 69 58 4 0 34 -18 68 -41 34 -23 68 -39 75 -36 15 6 28
57 18 72 -4 5 -7 29 -7 52 0 33 -7 49 -30 73 -27 28 -30 39 -35 117 -4 76 -8
87 -29 102 -23 15 -24 15 -13 -6 7 -13 12 -67 12 -128 l0 -107 45 -50 c31 -35
45 -59 45 -79 0 -36 -15 -37 -61 -3 -19 14 -53 34 -76 44 -29 13 -48 30 -59
53 -16 34 -16 36 7 73 31 50 32 131 3 171 -21 29 -220 193 -234 193 -4 0 -10
-16 -13 -36z m121 -426 c28 -28 7 -78 -33 -78 -43 0 -58 39 -28 72 19 21 44
23 61 6z m106 -4 c7 -19 -10 -44 -30 -44 -20 0 -36 34 -22 48 17 17 45 15 52
-4z"/>
<path d="M901 3207 c34 -74 -44 -167 -140 -167 -36 0 -40 -3 -46 -31 -7 -32 4
-48 32 -49 15 0 247 -155 312 -208 48 -39 80 -99 81 -149 0 -31 2 -33 35 -33
29 0 36 4 41 25 17 68 -11 99 -206 230 -89 60 -169 119 -177 132 -22 33 -8 62
42 83 43 18 49 27 59 85 6 35 -13 97 -32 103 -10 3 -10 -2 -1 -21z"/>
<path d="M608 3183 c-22 -25 -30 -57 -22 -87 l6 -25 29 21 c24 18 29 29 29 65
0 47 -15 56 -42 26z"/>
<path d="M5051 3147 c-35 -30 -70 -65 -77 -78 -15 -27 -18 -65 -5 -73 4 -3 41
25 80 62 69 63 73 69 69 105 l-3 38 -64 -54z"/>
<path d="M3580 3111 c-24 -7 -23 -8 13 -19 41 -12 125 -62 150 -90 8 -9 20
-43 26 -75 6 -32 17 -68 26 -80 18 -25 21 -196 5 -227 -8 -15 0 -13 40 12 l50
31 0 63 c0 79 -10 105 -59 153 -28 27 -42 51 -46 77 -13 82 -14 83 -74 114
-33 16 -62 34 -66 40 -7 11 -28 12 -65 1z"/>
<path d="M4031 3066 c-17 -20 -10 -77 10 -89 24 -15 64 0 78 29 10 22 9 31 -4
50 -18 27 -65 33 -84 10z"/>
<path d="M3847 3054 c-25 -25 5 -114 52 -159 25 -24 35 -27 49 -19 30 20 25
42 -17 69 -35 23 -40 33 -43 68 -3 40 -22 59 -41 41z"/>
<path d="M4468 3038 c-28 -22 -31 -55 -9 -77 25 -25 44 -26 65 -5 23 22 20 60
-6 78 -27 19 -30 19 -50 4z"/>
<path d="M5060 3000 c-30 -27 -52 -51 -48 -55 4 -4 31 15 60 43 69 66 59 75
-12 12z"/>
<path d="M2746 3003 c-8 -15 -20 -38 -27 -50 -10 -19 -5 -31 40 -98 l51 -77 0
104 c0 97 -2 106 -24 127 l-24 23 -16 -29z"/>
<path d="M904 3006 c-11 -28 1 -51 27 -54 34 -4 54 20 39 47 -12 24 -58 29
-66 7z"/>
<path d="M593 2973 c-7 -17 -8 -31 -4 -106 1 -18 17 -45 45 -75 45 -49 76
-100 76 -126 0 -8 24 -28 53 -45 85 -49 97 -64 97 -126 0 -32 7 -66 18 -85 17
-31 17 -31 -7 -51 -29 -24 -42 -24 -83 1 -18 11 -41 20 -51 20 -17 0 -18 -15
-16 -235 1 -230 2 -234 21 -224 11 6 27 8 35 4 13 -5 11 -12 -16 -39 -25 -26
-33 -44 -38 -87 -7 -65 -15 -74 -119 -150 -44 -32 -102 -83 -127 -113 l-47
-54 25 -49 24 -48 1 53 c0 91 15 111 144 196 125 83 136 96 136 173 0 41 7 55
60 125 l60 80 0 97 0 97 48 46 c26 25 85 73 132 107 78 57 89 62 130 59 l45
-3 3 48 3 47 -60 0 -61 0 0 -39 c0 -37 -4 -42 -90 -106 -49 -37 -113 -76 -142
-87 -29 -11 -56 -25 -60 -31 -4 -7 -8 -64 -8 -127 0 -123 -6 -140 -47 -140
-23 0 -23 1 -23 139 0 161 8 181 83 199 44 11 127 75 148 113 13 24 -4 57 -35
69 -22 8 -23 11 -13 56 11 45 10 47 -19 73 -17 14 -69 54 -116 87 -110 79
-138 115 -145 191 -7 71 -41 108 -60 66z m367 -522 c0 -10 -7 -24 -16 -31 -12
-11 -18 -11 -30 2 -20 20 -7 48 22 48 17 0 24 -6 24 -19z"/>
<path d="M1780 2963 c-23 -8 -70 -55 -86 -85 -10 -20 -14 -67 -14 -173 0 -81
-4 -154 -9 -164 -12 -22 -228 -187 -263 -200 -27 -10 -28 -14 -28 -76 0 -74
-1 -73 80 -45 l55 19 3 68 c4 79 10 88 107 154 71 48 84 72 86 153 0 28 10 80
22 116 18 51 29 69 57 87 57 35 70 51 70 82 0 20 -9 36 -26 50 -28 22 -30 23
-54 14z"/>
<path d="M1958 2923 c-9 -10 -21 -28 -27 -40 -10 -19 -7 -25 21 -46 70 -52
113 -60 141 -29 34 37 17 72 -48 105 -54 26 -71 28 -87 10z"/>
<path d="M2170 2918 c-21 -23 -22 -31 -5 -99 6 -23 1 -29 -38 -53 -60 -35
-110 -34 -193 4 -70 31 -82 30 -118 -9 -17 -19 -18 -23 -5 -36 11 -11 23 -12
61 -3 34 8 72 8 132 1 130 -16 226 9 226 59 0 11 16 38 35 59 19 22 35 45 35
53 0 47 -93 64 -130 24z"/>
<path d="M4878 2868 c-58 -55 -91 -108 -76 -123 7 -8 178 156 178 171 0 30
-38 12 -102 -48z"/>
<path d="M4987 2816 c-71 -65 -131 -125 -134 -134 -4 -9 24 -43 80 -98 47 -46
89 -84 92 -84 14 0 95 73 95 86 0 20 -4 18 -60 -22 -41 -30 -53 -34 -65 -24
-22 18 -18 36 13 56 15 9 46 33 70 53 l42 35 0 74 0 74 -51 -44 c-116 -98
-148 -120 -166 -114 -19 8 14 44 156 167 44 38 62 61 60 74 -3 15 -31 -6 -132
-99z"/>
<path d="M3577 2904 c-4 -4 -7 -40 -7 -79 0 -84 -19 -122 -85 -166 -46 -31
-51 -53 -15 -57 16 -1 42 11 75 36 l50 38 1 95 c1 51 3 103 5 113 4 19 -12 32
-24 20z"/>
<path d="M730 2870 c0 -26 39 -64 140 -135 60 -42 121 -90 134 -106 28 -33 40
-81 34 -134 -3 -24 0 -35 9 -35 20 0 18 188 -2 218 -19 26 -280 202 -300 202
-8 0 -15 -5 -15 -10z"/>
<path d="M4051 2854 c-25 -32 -27 -57 -5 -78 19 -20 25 -20 84 1 41 14 51 15
80 3 40 -17 70 -64 70 -112 0 -27 -9 -47 -36 -80 -20 -23 -40 -44 -45 -46 -19
-7 -8 55 12 74 32 29 41 51 29 74 -25 47 -100 51 -100 5 0 -14 8 -29 20 -35
24 -13 27 -64 6 -114 -15 -37 -82 -96 -108 -96 -10 0 -18 -6 -18 -12 0 -7 -3
-23 -6 -35 -4 -14 -2 -23 4 -23 12 0 84 64 194 171 64 62 68 68 68 110 0 64
-28 109 -86 139 -27 14 -67 37 -89 53 -22 15 -43 27 -47 27 -3 0 -16 -12 -27
-26z"/>
<path d="M35 2851 c-17 -3 -31 -14 -33 -24 -3 -15 0 -16 23 -7 38 15 45 13 45
-13 0 -39 22 -59 60 -55 32 3 35 6 38 36 6 63 -38 84 -133 63z"/>
<path d="M3955 2714 c0 -117 -8 -132 -79 -156 -22 -7 -42 -19 -44 -27 -4 -11
1 -10 19 2 34 24 69 21 120 -12 44 -27 46 -28 57 -10 7 11 22 19 35 19 30 0
44 11 56 42 9 24 6 32 -26 70 -24 29 -44 43 -61 43 -34 1 -62 39 -62 86 0 21
-3 40 -7 42 -5 3 -8 -42 -8 -99z m89 -110 c8 -21 -3 -42 -25 -49 -26 -9 -39 2
-39 30 0 40 50 55 64 19z"/>
<path d="M0 2728 l0 -43 26 27 c30 29 27 58 -6 58 -17 0 -20 -6 -20 -42z"/>
<path d="M4386 2727 c-41 -30 16 -91 59 -63 11 7 21 21 23 30 8 39 -45 60 -82
33z"/>
<path d="M1856 2670 c-42 -13 -65 -38 -72 -79 -10 -66 -26 -91 -90 -148 -45
-39 -64 -63 -64 -79 0 -28 -1 -28 39 -8 47 24 82 11 143 -54 30 -31 60 -66 68
-78 12 -16 29 -22 77 -26 58 -6 66 -4 103 23 22 16 40 37 40 46 0 14 -3 13
-22 -5 -31 -28 -71 -42 -123 -42 -40 0 -46 4 -94 59 -44 50 -53 69 -61 118 -6
32 -10 61 -10 66 0 12 110 57 139 57 14 0 50 -9 79 -20 29 -11 61 -20 73 -20
11 0 44 -24 74 -54 57 -57 85 -122 85 -199 0 -35 -7 -46 -54 -93 -30 -28 -61
-66 -70 -82 -8 -16 -34 -44 -56 -62 -22 -17 -40 -37 -40 -43 0 -6 12 -29 28
-51 l27 -39 1 -205 2 -204 43 -44 c40 -41 43 -48 47 -109 6 -86 22 -84 22 3 0
60 -4 74 -28 108 -16 21 -36 45 -45 53 -15 12 -17 42 -17 265 0 233 2 253 20
284 11 17 21 32 22 32 2 0 2 -121 0 -268 l-4 -268 36 -28 c63 -47 69 -71 76
-266 5 -178 10 -199 50 -235 18 -16 21 -26 15 -61 -8 -59 7 -68 110 -66 l84 2
41 -49 c22 -26 52 -54 65 -61 23 -12 29 -9 112 61 145 123 370 300 452 356 2
1 -2 9 -8 17 -18 22 -10 56 19 77 35 25 70 28 84 6 9 -15 6 -22 -16 -38 -14
-11 -30 -33 -33 -50 -5 -22 -25 -44 -68 -77 -33 -26 -135 -108 -227 -182 -91
-74 -184 -149 -205 -167 -22 -17 -37 -34 -34 -37 3 -4 36 17 72 45 67 51 91
57 104 23 4 -11 -16 -38 -70 -91 l-77 -75 0 -148 c0 -136 2 -149 22 -175 l22
-28 -28 -23 c-36 -31 -80 -31 -111 1 -32 32 -31 48 5 85 l30 31 0 125 0 126
-52 49 c-57 52 -74 50 -36 -3 22 -32 23 -41 24 -224 0 -181 2 -193 23 -223 19
-26 29 -31 62 -31 36 0 48 8 117 72 42 39 83 78 90 87 9 11 12 71 12 222 0
113 3 221 6 238 9 42 35 67 184 181 153 116 226 183 234 215 8 33 -10 74 -77
173 l-57 83 0 91 0 90 -75 70 c-80 75 -95 105 -95 189 0 56 -39 137 -86 178
-18 17 -76 55 -128 85 -90 53 -166 122 -166 149 0 7 7 22 15 33 15 20 19 61 9
88 -6 16 -128 116 -141 116 -5 0 -7 -47 -5 -105 2 -62 7 -103 13 -100 5 4 9
31 9 61 0 47 2 54 20 54 18 0 20 -7 20 -74 l0 -75 60 -46 c65 -50 76 -71 33
-61 -66 15 -130 18 -137 7 -5 -7 7 -11 37 -11 31 0 63 -10 102 -30 35 -18 65
-28 77 -24 30 9 84 -32 127 -97 52 -78 61 -112 61 -237 l0 -104 35 -41 c34
-39 35 -43 35 -123 0 -78 2 -85 30 -117 16 -19 34 -47 40 -63 15 -39 3 -153
-20 -191 -10 -17 -73 -72 -140 -124 -67 -52 -158 -122 -202 -156 -89 -71 -112
-76 -160 -35 -76 64 -102 80 -119 69 -20 -12 -47 -3 -56 18 -9 25 11 39 37 25
20 -11 21 -10 10 9 -6 12 -14 21 -18 21 -4 0 -29 20 -55 43 -45 42 -47 46 -47
100 0 44 -3 57 -15 57 -11 0 -15 11 -15 41 0 32 4 42 20 46 19 5 20 14 20 208
0 225 3 235 69 235 26 0 34 -5 45 -31 18 -43 10 -65 -35 -101 l-39 -31 0 -211
c0 -116 3 -221 6 -234 8 -29 188 -167 230 -176 51 -11 129 29 117 60 -10 27
-40 35 -83 24 -34 -9 -45 -8 -80 10 -23 12 -59 37 -80 57 l-40 35 0 214 c0
208 1 216 24 263 14 26 36 62 50 78 96 114 26 274 -109 249 -48 -9 -187 -136
-197 -180 -15 -59 -2 -90 47 -114 37 -18 45 -27 51 -58 6 -31 3 -40 -15 -55
-33 -27 -87 -3 -75 33 4 14 -3 29 -23 50 l-28 29 3 172 c3 145 6 179 23 217
25 57 66 99 146 151 35 23 63 47 63 54 0 6 -20 30 -44 52 -33 30 -46 51 -55
91 -9 34 -26 66 -53 97 l-40 45 -77 -1 c-54 -1 -87 4 -108 15 -50 25 -104 30
-148 12 -34 -14 -41 -15 -53 -2 -12 12 -11 16 14 32 15 11 51 22 78 25 49 6
49 6 -20 8 -39 0 -73 4 -77 7 -11 11 5 35 34 49 43 23 86 18 156 -16 60 -29
70 -31 132 -25 63 6 71 5 98 -18 30 -25 43 -25 43 0 0 28 -75 54 -158 54 -53
0 -98 7 -137 20 -63 22 -75 23 -119 10z m325 -197 c42 -25 76 -80 84 -135 10
-64 -6 -61 -34 6 -14 34 -40 71 -71 100 -40 37 -45 46 -29 46 12 0 34 -8 50
-17z m156 -239 c3 -10 -4 -26 -20 -42 -22 -21 -28 -23 -41 -12 -20 16 -20 34
0 54 20 21 53 20 61 0z m144 -373 c33 -33 40 -92 15 -126 -12 -17 -18 -18 -68
-7 -62 14 -84 10 -114 -25 -23 -27 -49 -23 -60 9 -7 23 51 113 98 153 42 35
91 34 129 -4z m597 -223 c8 -8 12 -46 12 -106 0 -86 2 -97 25 -124 29 -34 30
-38 11 -64 -14 -18 -15 -18 -24 6 -6 14 -22 40 -36 59 -24 32 -26 43 -26 131
0 109 7 129 38 98z m-224 -992 c12 -46 -17 -76 -55 -56 -26 14 -24 45 3 64 31
22 45 20 52 -8z m-13 -166 c35 -19 20 -96 -17 -88 -19 3 -31 54 -20 84 6 17
11 17 37 4z"/>
<path d="M312 2650 c-26 -24 -28 -43 -7 -60 20 -16 43 -6 57 24 8 20 8 29 -2
41 -16 20 -22 19 -48 -5z"/>
<path d="M126 2591 c-24 -26 -17 -62 15 -80 24 -13 29 -13 53 2 28 19 36 63
14 85 -18 18 -63 14 -82 -7z"/>
<path d="M2350 2556 c0 -34 7 -52 35 -87 30 -37 35 -52 35 -95 0 -39 -4 -53
-16 -58 -27 -10 -44 13 -44 61 0 40 -5 50 -51 99 -65 68 -87 71 -25 3 30 -33
47 -63 51 -87 11 -67 16 -77 70 -125 57 -52 90 -56 59 -9 -17 25 -23 89 -24
232 0 26 -9 45 -35 73 -18 20 -39 37 -44 37 -6 0 -11 -20 -11 -44z"/>
<path d="M1990 2565 c19 -7 44 -14 55 -14 11 0 0 7 -25 15 -57 17 -77 17 -30
-1z"/>
<path d="M705 2526 c-10 -49 -2 -63 37 -68 37 -6 48 4 48 43 0 30 -14 45 -52
54 -25 6 -27 4 -33 -29z"/>
<path d="M2100 2546 c0 -2 13 -6 29 -8 17 -2 28 -1 25 4 -5 8 -54 12 -54 4z"/>
<path d="M13 2533 c-8 -3 -13 -25 -13 -60 0 -48 2 -54 15 -43 10 8 12 17 6 28
-6 11 -3 20 12 32 31 25 15 58 -20 43z"/>
<path d="M3699 2483 c-65 -68 -145 -81 -237 -38 -56 26 -72 30 -72 18 1 -13
103 -56 145 -60 62 -8 118 13 171 60 26 24 43 46 37 50 -5 3 -25 -10 -44 -30z"/>
<path d="M5083 2481 c-18 -15 -33 -33 -33 -39 0 -8 11 -9 33 -5 41 8 39 6 35
41 l-3 30 -32 -27z"/>
<path d="M3886 2481 c17 -10 41 -35 54 -55 21 -34 21 -38 6 -59 -73 -98 -66
-68 -66 -298 l0 -208 -26 -18 c-50 -35 -64 -53 -64 -83 0 -37 -33 -105 -55
-113 -13 -6 -15 8 -15 95 l0 101 50 46 49 46 3 180 c3 174 4 182 31 232 31 60
33 76 13 92 -12 10 -18 7 -31 -18 -8 -17 -36 -54 -61 -82 -45 -50 -45 -51 -42
-117 2 -41 8 -67 16 -70 8 -3 12 12 12 51 0 40 5 61 20 78 23 28 21 34 20
-106 -1 -104 -11 -149 -26 -112 -7 20 -24 13 -24 -10 0 -8 -9 -27 -19 -42 -16
-22 -20 -53 -26 -196 -6 -142 -5 -172 7 -182 11 -10 20 -8 43 7 l29 19 33 -52
c35 -54 40 -76 23 -107 -15 -28 -40 -39 -116 -49 -51 -8 -73 -16 -95 -37 -41
-39 -49 -79 -43 -212 5 -106 4 -120 -15 -150 -23 -36 -55 -52 -107 -52 -20 0
-45 -5 -57 -11 -31 -16 -97 -81 -97 -95 0 -30 25 -23 66 17 41 40 49 43 116
51 65 7 76 5 98 -12 62 -49 152 -110 161 -110 25 0 0 36 -46 66 -66 43 -95 70
-95 89 0 23 37 55 64 55 39 0 78 54 74 104 -3 34 -7 42 -30 50 -23 8 -31 6
-52 -17 -46 -50 -66 -28 -66 70 0 122 41 173 139 173 38 0 66 6 89 20 l32 20
0 -98 c0 -75 -4 -103 -17 -122 l-16 -25 26 24 c27 24 27 25 27 166 l0 141 -40
54 c-22 29 -40 56 -40 60 0 3 25 30 55 60 l55 54 0 228 c0 250 3 267 59 330
36 41 39 65 11 100 -21 28 -77 58 -107 58 -13 0 -10 -5 13 -19z"/>
<path d="M1883 2455 c-24 -17 -38 -64 -28 -94 3 -11 20 -24 36 -30 17 -6 46
-24 65 -41 39 -34 62 -37 106 -14 l30 16 -43 44 c-52 53 -70 60 -104 38 -24
-16 -27 -16 -45 1 -40 36 -13 65 60 65 51 0 108 -28 148 -75 26 -29 32 -45 32
-80 0 -44 -11 -61 -101 -159 -5 -6 -25 -4 -49 3 -54 16 -81 -1 -99 -59 -10
-34 -27 -52 -99 -108 -48 -37 -104 -83 -124 -103 l-38 -37 0 -143 c0 -185 2
-190 140 -291 201 -149 214 -161 224 -200 7 -27 6 -41 -4 -52 -19 -23 -28 -20
-43 17 -18 40 -27 48 -162 137 -198 131 -196 127 -202 354 -6 222 -11 212 157
331 92 66 98 74 103 147 3 47 1 73 -9 85 -12 17 -16 15 -54 -22 -57 -55 -64
-71 -62 -141 2 -52 -2 -65 -23 -88 -25 -27 -55 -35 -55 -13 0 7 10 17 23 22
47 21 26 109 -35 138 -28 14 -35 14 -49 2 -8 -8 -40 -19 -69 -25 -55 -10 -100
-33 -100 -50 0 -15 8 -12 39 11 16 11 59 27 96 35 61 13 71 13 92 -1 34 -23
50 -60 33 -80 -14 -17 -47 -20 -69 -6 -11 7 -10 10 4 18 25 15 -78 25 -113 12
-57 -22 -72 -47 -72 -119 l0 -67 66 -6 c37 -4 69 -9 72 -12 3 -3 5 -47 4 -98
-1 -50 2 -136 6 -190 11 -120 14 -123 197 -247 96 -64 142 -102 172 -142 37
-49 41 -60 45 -126 3 -67 6 -74 40 -109 59 -61 59 -83 -1 -146 l-51 -54 0
-162 c0 -135 -2 -163 -15 -167 -8 -4 -22 -1 -30 6 -12 10 -15 46 -15 196 l0
184 34 38 c19 21 32 43 28 48 -4 6 -32 22 -62 36 -77 36 -197 123 -214 156
-16 32 -32 202 -18 202 21 0 43 -42 53 -101 6 -35 17 -74 25 -86 12 -20 114
-103 125 -103 8 0 -3 175 -12 191 -4 9 -55 47 -111 85 -147 98 -202 154 -223
229 -10 33 -26 71 -35 85 -18 25 -140 116 -140 105 0 -4 31 -37 68 -73 60 -59
70 -75 85 -129 13 -50 26 -72 67 -112 28 -28 55 -62 60 -76 6 -15 10 -70 10
-123 1 -61 5 -103 13 -113 7 -8 48 -41 92 -73 44 -32 95 -72 113 -89 l32 -31
-2 -208 c-3 -180 -5 -205 -17 -193 -11 11 -16 57 -20 194 -5 159 -8 181 -26
201 -28 31 -155 123 -161 117 -12 -11 17 -44 70 -81 94 -65 94 -62 102 -361
l7 -260 -45 -41 c-45 -41 -45 -43 -50 -118 -5 -69 -3 -76 14 -76 15 0 18 8 18
59 l0 59 65 57 c36 31 65 65 65 75 0 10 5 22 12 26 13 8 36 -22 55 -70 9 -25
12 6 12 175 l1 207 25 16 c22 14 25 24 25 72 0 49 4 61 35 97 44 51 46 88 5
148 -24 36 -30 55 -30 100 0 38 -5 61 -15 69 -9 8 -15 30 -15 56 0 38 4 46 25
56 34 15 29 44 -6 40 -18 -2 -51 15 -115 61 -229 162 -284 209 -284 243 0 8 2
14 4 14 3 0 57 -38 121 -85 l117 -85 69 0 c81 0 114 -17 135 -67 18 -43 18
-114 -1 -139 -17 -23 -19 -60 -4 -70 6 -3 25 7 42 24 27 27 29 34 20 54 -6 13
-14 47 -18 77 -11 99 -61 141 -169 141 l-65 0 -99 79 c-55 44 -107 90 -116
102 -20 29 -23 196 -3 221 26 33 151 118 174 118 20 0 24 -4 21 -26 -2 -21
-13 -30 -52 -45 -27 -10 -62 -31 -78 -45 -27 -26 -28 -32 -28 -115 l0 -87 40
-36 c43 -39 61 -44 79 -22 6 7 28 16 48 19 94 16 122 108 58 193 -34 45 -45
87 -25 99 6 3 10 1 10 -6 0 -20 53 -104 58 -91 2 7 -10 34 -27 61 -24 37 -31
59 -31 99 0 44 -3 51 -22 54 -28 4 -33 21 -13 42 12 12 21 13 34 6 14 -7 23
-4 37 12 11 11 40 35 65 52 25 17 69 48 97 69 l52 39 0 60 c0 96 -39 145 -151
187 -64 25 -116 27 -146 6z m-75 -362 c2 -33 -1 -44 -20 -57 -42 -29 -58 -21
-58 28 0 35 5 48 23 61 35 25 52 15 55 -32z m-224 -149 c9 -8 16 -25 16 -36 0
-54 -74 -79 -104 -36 -21 30 -20 44 4 68 24 24 63 26 84 4z m276 -145 c0 -8 5
-7 16 2 13 10 17 10 25 -2 35 -55 -23 -110 -83 -78 -27 14 -30 9 -15 -30 10
-27 9 -33 -3 -41 -33 -21 -40 -11 -40 52 0 50 4 66 22 85 22 24 78 32 78 12z
m84 -114 c11 -30 -107 -134 -139 -121 -27 10 -16 31 47 84 66 55 82 61 92 37z
m-165 -557 c-14 -26 -29 -13 -29 24 0 30 1 31 20 13 15 -14 17 -22 9 -37z m59
-19 c2 -9 -5 -19 -14 -23 -21 -8 -50 17 -39 34 10 16 49 8 53 -11z"/>
<path d="M5084 2375 c-7 -18 3 -35 22 -35 8 0 14 10 14 25 0 27 -27 35 -36 10z"/>
<path d="M4736 2359 c-50 -40 -24 -109 42 -109 34 0 62 29 62 66 0 23 -42 64
-65 64 -7 0 -24 -9 -39 -21z"/>
<path d="M4968 2320 c-47 -40 -47 -42 -50 -108 -2 -55 -6 -67 -21 -70 -10 -2
-27 4 -37 13 -17 16 -21 16 -55 -1 -28 -13 -42 -29 -57 -63 -23 -54 -49 -84
-100 -117 l-38 -24 0 -86 c0 -47 -5 -105 -11 -130 -13 -51 -10 -59 25 -50 31
8 41 38 23 68 -10 17 -12 45 -8 103 5 71 8 80 26 80 18 0 21 -8 25 -75 6 -95
12 -105 50 -85 16 8 31 15 35 15 3 0 5 -20 5 -44 0 -38 -5 -48 -35 -75 -34
-29 -40 -31 -119 -31 -115 0 -123 -8 -132 -123 -6 -76 -4 -90 11 -107 20 -22
46 -25 76 -10 14 8 19 21 19 51 0 65 13 79 71 79 43 0 50 -3 47 -17 -2 -12
-15 -20 -41 -23 -44 -6 -46 -25 -2 -25 27 0 30 -4 33 -32 l3 -33 -53 0 c-38 0
-49 -3 -38 -10 8 -5 31 -10 50 -10 l34 0 -22 -22 c-17 -17 -39 -24 -99 -30
l-78 -8 -30 36 c-28 32 -34 34 -58 25 -35 -13 -35 -43 -1 -70 20 -16 41 -21
82 -21 49 0 59 -3 78 -27 19 -24 24 -26 47 -16 14 7 27 22 29 35 2 17 11 24
31 26 l28 3 -6 -48 c-5 -38 -14 -54 -43 -80 -46 -41 -87 -53 -179 -53 -76 0
-90 8 -73 40 9 17 21 20 70 20 56 0 60 1 60 24 0 22 -4 24 -77 29 -43 2 -80 3
-82 1 -2 -1 -6 -42 -9 -90 l-5 -87 39 7 c21 4 77 13 124 21 101 16 117 21 150
50 14 12 43 27 65 33 22 6 68 35 103 63 l63 52 -30 18 c-40 24 -54 54 -47 97
4 29 23 52 87 114 46 43 80 81 77 84 -7 6 -95 -56 -145 -103 -17 -16 -35 -43
-38 -59 -4 -16 -11 -39 -16 -52 -5 -13 -9 -58 -9 -102 0 -80 -6 -95 -34 -84
-13 5 -16 24 -16 108 1 163 30 213 189 316 18 12 22 21 17 38 -12 35 -10 36
-177 -98 -30 -24 -45 -29 -93 -29 -69 0 -86 -12 -86 -60 0 -51 -20 -76 -53
-67 -32 8 -40 32 -31 91 11 77 28 89 133 95 86 6 94 8 148 46 76 54 83 67 55
97 -29 31 -28 55 3 69 21 9 30 7 65 -17 22 -16 67 -56 99 -91 45 -47 61 -72
66 -103 4 -23 15 -51 26 -63 l18 -23 1 46 c0 34 -5 51 -21 65 -27 25 -99 126
-138 196 l-33 58 4 169 3 170 54 55 c36 36 52 60 48 70 -9 23 -17 20 -69 -24z
m-58 -234 c0 -8 -20 -26 -45 -40 -25 -15 -45 -34 -45 -44 0 -9 -8 -30 -17 -47
-9 -16 -19 -52 -22 -80 -6 -54 -27 -69 -58 -44 -13 11 -14 26 -9 83 7 80 31
125 84 161 41 28 112 35 112 11z m0 -121 c0 -44 -4 -56 -20 -65 -29 -16 -43
-3 -37 35 6 36 34 85 48 85 5 0 9 -25 9 -55z"/>
<path d="M3996 2306 c-14 -19 -30 -46 -36 -61 -13 -35 -13 -392 0 -400 7 -4
10 64 10 197 l0 204 30 47 c35 55 33 61 -4 13z"/>
<path d="M1086 2309 c-48 -38 -24 -109 37 -109 34 0 67 32 67 65 0 29 -32 65
-59 65 -10 0 -30 -9 -45 -21z"/>
<path d="M1635 2290 c-27 -30 -13 -66 36 -91 l41 -20 24 22 c31 29 30 54 -1
84 -29 30 -75 33 -100 5z"/>
<path d="M5075 2272 c-82 -60 -80 -55 -80 -241 0 -161 1 -168 27 -221 l28 -55
-2 90 c0 50 0 147 0 217 l2 128 36 40 c20 21 34 46 32 55 -2 14 -10 11 -43
-13z"/>
<path d="M650 2285 c-3 -5 -26 -27 -52 -48 l-48 -38 0 -78 c0 -74 2 -80 35
-122 30 -38 35 -52 35 -97 0 -64 -8 -73 -156 -179 -66 -47 -97 -76 -100 -93
-10 -47 -13 -50 -46 -50 -18 -1 -44 -7 -58 -15 -42 -24 -109 -18 -165 14 -28
16 -57 36 -64 45 -14 17 -31 21 -31 8 0 -8 67 -60 138 -108 54 -37 123 -33
229 13 74 33 90 44 118 86 18 27 59 70 91 96 l59 47 3 84 c3 88 -7 127 -39
156 -31 28 -23 58 26 98 39 32 45 42 44 74 0 48 -14 120 -19 107z"/>
<path d="M3252 2254 c-28 -19 -26 -51 3 -70 18 -12 24 -11 43 2 27 19 29 60 3
74 -25 13 -22 13 -49 -6z"/>
<path d="M4549 2181 c-27 -26 -49 -56 -49 -66 0 -22 65 -85 88 -85 19 0 76 37
89 60 26 40 25 76 -2 109 -39 45 -68 41 -126 -18z"/>
<path d="M1239 2172 c-35 -27 -69 -56 -76 -64 -8 -9 -15 -72 -20 -163 l-8
-148 -60 -47 -60 -47 -5 -204 -5 -205 -32 -44 c-18 -24 -33 -49 -33 -54 0 -6
21 -31 46 -57 31 -31 45 -53 41 -63 -9 -24 -17 -21 -84 39 -40 36 -70 55 -87
55 -48 0 -46 49 4 70 17 7 44 28 61 48 l31 35 -7 197 c-8 217 -6 229 48 256
57 29 77 54 77 96 0 21 -3 38 -7 38 -11 0 -113 -82 -134 -108 -14 -19 -19 -41
-19 -93 0 -37 -3 -70 -7 -72 -5 -3 -18 -1 -30 4 -21 8 -23 15 -23 87 0 99 17
128 115 195 97 65 115 88 115 143 0 34 -6 51 -25 69 -31 31 -49 31 -80 0 -21
-20 -25 -34 -25 -80 0 -54 -2 -57 -60 -120 -33 -35 -60 -66 -61 -67 0 -2 -4
-39 -8 -83 -5 -44 -13 -93 -19 -110 -42 -122 -42 -117 -11 -155 25 -30 29 -43
29 -97 0 -57 -2 -64 -27 -79 -118 -73 -263 -174 -300 -210 -44 -41 -45 -45
-40 -86 4 -32 15 -51 41 -75 49 -46 90 -45 147 3 39 32 47 35 84 29 113 -18
130 -18 155 3 l25 20 -29 31 c-37 39 -73 41 -86 5 -14 -37 -44 -28 -48 14 -3
25 1 34 18 40 19 7 19 9 -15 42 -57 55 -46 96 42 154 l48 31 -1 70 c0 39 -2
88 -4 109 -3 31 1 43 19 58 28 22 45 23 65 2 22 -21 20 -56 -4 -87 -16 -20
-20 -40 -20 -94 0 -76 -6 -89 -62 -122 -31 -19 -38 -28 -38 -55 0 -36 24 -76
46 -76 9 0 42 -26 75 -57 l59 -56 -26 -28 c-38 -39 -84 -59 -140 -59 -26 0
-45 -3 -41 -6 10 -11 105 -6 129 7 13 6 52 37 87 68 34 31 97 82 138 113 42
32 82 67 90 78 18 25 44 26 74 2 19 -16 23 -30 26 -103 4 -78 2 -88 -24 -131
-18 -31 -69 -82 -143 -143 -172 -143 -208 -166 -277 -174 -32 -4 -64 -10 -71
-15 -9 -5 -19 -1 -28 13 -27 39 -104 15 -104 -33 0 -51 53 -61 106 -21 43 33
112 43 154 21 32 -15 33 -15 71 17 21 18 48 45 59 60 24 30 218 200 293 256
26 20 50 46 53 58 4 12 4 63 3 112 l-4 90 -43 44 -43 43 3 120 c2 98 6 119 18
119 12 0 16 -19 18 -101 l3 -100 39 -48 c40 -48 40 -49 40 -135 0 -47 3 -103
6 -124 8 -43 19 -31 -193 -206 -66 -56 -136 -120 -154 -143 -27 -35 -19 -30
42 27 91 84 154 129 168 120 44 -26 -51 -130 -118 -130 -31 0 -36 -3 -42 -32
-3 -17 -16 -43 -28 -58 -12 -17 -21 -42 -21 -64 0 -55 -12 -66 -69 -66 -39 0
-55 5 -75 24 -14 14 -26 30 -26 36 0 7 -8 19 -18 28 -37 33 -64 21 -185 -82
-133 -115 -143 -121 -192 -121 -29 0 -45 8 -71 34 -33 33 -34 37 -34 113 0 93
-13 117 -71 134 -39 12 -41 11 -72 -20 l-32 -32 70 -64 69 -63 -2 -94 c-3 -93
-2 -94 28 -123 l32 -30 18 25 c11 14 29 38 41 53 11 15 44 39 73 54 28 14 95
61 149 104 108 87 134 95 183 57 l29 -23 -60 -5 -60 -5 3 -45 c9 -160 11 -149
-32 -186 -33 -29 -47 -34 -88 -34 l-48 0 0 -110 c0 -137 18 -148 22 -13 3 84
6 98 21 101 15 3 17 -7 17 -97 l0 -101 25 0 c25 0 25 0 25 98 0 92 2 100 25
122 24 23 26 23 43 7 14 -14 14 -21 4 -37 -7 -12 -12 -55 -12 -105 0 -69 3
-85 15 -85 12 0 15 17 15 90 0 77 3 95 21 120 12 16 19 35 16 43 -3 8 1 24 9
35 9 13 11 23 4 27 -17 11 -11 43 12 59 20 14 24 14 37 1 11 -11 12 -19 3 -39
-16 -37 5 -62 40 -46 52 24 54 89 4 111 -19 9 -37 8 -81 -7 l-57 -17 -19 24
c-11 13 -18 33 -16 44 2 18 11 20 107 23 65 2 113 -2 126 -9 24 -12 44 -49 44
-80 0 -35 -38 -96 -81 -131 -101 -81 -97 -75 -102 -165 -2 -46 0 -83 5 -83 4
0 8 29 8 65 0 66 0 66 47 108 91 82 111 107 128 157 14 41 15 56 5 86 -15 45
-8 130 15 178 10 20 50 61 98 99 121 97 131 108 124 157 -5 38 -3 42 37 69 23
16 48 36 55 45 8 10 14 68 18 179 4 138 2 169 -11 195 -9 17 -16 46 -16 64 0
88 -59 181 -114 181 -16 0 -32 -7 -37 -14 -5 -8 -9 -70 -9 -139 l0 -126 40
-39 c39 -38 51 -65 29 -65 -12 0 -97 65 -112 85 -4 5 -6 74 -5 153 2 78 0 142
-4 142 -4 0 -9 -71 -10 -157 l-3 -158 -29 2 c-16 1 -31 5 -35 8 -3 4 -8 68
-11 143 -4 113 -8 137 -20 137 -22 0 -28 -206 -6 -224 11 -9 12 -19 6 -36 -11
-30 10 -55 46 -55 34 0 31 -33 -6 -60 -38 -27 -77 -23 -101 10 -17 23 -18 42
-11 270 l7 244 63 44 62 43 0 99 0 98 40 34 c42 36 112 161 103 185 -3 7 -6
13 -8 13 -1 0 -31 -22 -66 -48z m-614 -982 c10 -15 -4 -49 -24 -60 -13 -6 -24
-5 -37 5 -18 14 -18 16 9 40 30 27 42 31 52 15z m430 -50 c0 -19 -18 -22 -40
-7 -12 9 -16 20 -12 32 7 16 9 16 30 2 12 -8 22 -20 22 -27z m-343 -60 c9 -53
5 -60 -35 -60 -21 0 -41 -10 -63 -31 -28 -27 -36 -30 -61 -22 -45 15 -42 47 7
79 l41 27 25 -24 26 -24 -21 40 -22 40 27 23 c24 21 28 21 48 9 13 -9 24 -30
28 -57z"/>
<path d="M246 2165 c-45 -35 -46 -37 -46 -90 0 -37 4 -55 12 -55 7 0 36 16 65
36 48 33 53 40 53 74 0 80 -15 87 -84 35z"/>
<path d="M1511 2170 c-13 -11 -37 -20 -53 -20 -34 0 -68 -16 -68 -32 0 -13
129 -1 148 14 13 11 17 58 5 58 -5 -1 -19 -10 -32 -20z"/>
<path d="M5097 2183 c-4 -3 -7 -113 -7 -243 0 -199 2 -240 15 -250 13 -11 15
13 15 207 0 154 -3 222 -12 231 -9 9 -9 18 0 37 11 23 4 34 -11 18z"/>
<path d="M2370 2096 c-41 -30 -86 -71 -99 -91 -23 -35 -48 -141 -36 -154 4 -3
16 8 28 24 12 17 35 44 53 62 31 32 31 32 10 46 -21 15 -21 15 -1 37 16 17 27
21 54 16 20 -3 45 1 62 9 15 8 46 15 68 15 36 0 47 -7 95 -55 30 -29 67 -75
82 -101 25 -43 29 -60 34 -167 l5 -120 55 -46 c82 -69 147 -136 166 -173 26
-47 25 -143 -1 -188 -12 -19 -52 -59 -90 -87 -69 -52 -86 -75 -66 -87 11 -7
140 85 179 126 50 55 48 127 -8 238 -24 48 -30 72 -30 125 0 61 -2 67 -37 106
-38 42 -38 42 -39 133 -1 73 -6 101 -24 139 -52 111 -175 205 -295 226 -28 5
-59 12 -70 15 -14 4 -42 -10 -95 -48z m376 -113 c60 -62 78 -113 79 -225 l0
-97 36 -38 c66 -69 59 -116 -10 -70 -20 14 -51 39 -68 56 -31 30 -31 33 -35
145 l-3 115 -43 61 c-35 49 -41 64 -32 76 19 22 36 17 76 -23z"/>
<path d="M3316 2124 c-24 -24 -20 -61 9 -80 51 -33 114 22 85 75 -13 26 -71
29 -94 5z"/>
<path d="M2013 2037 c-32 -30 -37 -41 -41 -91 -4 -49 -1 -61 22 -94 24 -35 26
-46 26 -144 0 -97 -2 -109 -22 -133 -13 -14 -45 -33 -72 -43 -59 -21 -78 -44
-55 -68 27 -26 85 -22 116 8 33 33 42 85 42 251 1 122 0 130 -24 161 -36 47
-33 82 11 122 19 19 40 34 45 34 5 0 9 7 9 15 0 23 -17 18 -57 -18z"/>
<path d="M3177 2042 c-24 -26 -21 -47 10 -77 33 -30 54 -32 76 -7 24 26 21 49
-8 77 -29 30 -56 32 -78 7z"/>
<path d="M4397 2053 c-4 -3 20 -34 53 -69 59 -61 76 -103 50 -119 -18 -11 -97
34 -135 76 -35 39 -55 43 -55 12 0 -9 25 -42 55 -74 30 -32 55 -66 56 -76 1
-10 0 -70 -1 -133 -2 -115 -11 -152 -44 -179 -9 -8 -16 -24 -16 -38 0 -21 3
-23 23 -18 12 4 31 16 42 26 19 19 22 40 25 186 0 15 13 32 39 48 46 31 61 61
61 123 0 99 -9 120 -74 183 -63 60 -68 64 -79 52z"/>
<path d="M3492 2018 c-7 -7 -20 -13 -30 -14 -9 0 -27 -1 -40 -2 -12 -1 -49
-27 -82 -57 -33 -30 -68 -55 -77 -55 -13 0 -14 -3 -6 -11 9 -9 23 -5 56 14 24
14 50 33 57 42 40 48 118 58 171 22 43 -29 57 -71 55 -163 l-1 -71 -89 -84
c-48 -46 -104 -92 -122 -102 -19 -9 -34 -24 -34 -32 0 -8 23 -37 50 -63 l50
-48 0 -162 0 -162 29 0 c17 0 33 6 38 13 4 6 10 77 13 157 3 80 9 153 14 163
7 16 5 18 -15 15 -24 -3 -24 -4 -24 -133 0 -123 -1 -130 -20 -130 -19 0 -20 6
-17 115 2 63 -1 127 -6 141 -9 23 -7 30 16 51 45 41 75 58 104 58 18 0 33 8
44 25 15 23 15 27 0 51 -10 14 -24 28 -32 31 -24 9 -63 -24 -70 -62 -6 -33
-70 -105 -93 -105 -47 0 -45 30 4 60 19 12 37 31 41 43 9 31 62 85 106 108
l37 19 3 110 c4 140 -2 163 -54 200 -45 33 -58 36 -76 18z"/>
<path d="M459 1977 c-19 -12 -34 -27 -34 -33 0 -5 17 -30 37 -54 36 -41 39
-43 63 -30 35 19 33 65 -4 108 l-28 32 -34 -23z"/>
<path d="M1283 1974 l-33 -25 0 -119 c0 -111 1 -120 22 -134 29 -20 34 -20 58
4 18 18 20 33 20 134 0 108 -10 166 -27 166 -5 0 -23 -12 -40 -26z"/>
<path d="M2445 1981 c3 -5 19 -12 35 -16 40 -9 89 -51 106 -92 8 -19 14 -68
14 -117 l0 -85 -46 -52 c-70 -78 -74 -95 -74 -279 l0 -160 29 -32 c28 -32 33
-33 115 -37 73 -3 92 0 138 21 103 48 141 112 117 200 -11 45 -64 103 -179
199 l-55 46 -6 129 c-6 138 -20 184 -71 231 -37 35 -141 72 -123 44z m165
-565 c0 -139 2 -154 20 -171 27 -24 70 -22 92 5 27 33 23 77 -8 103 -82 67
-84 71 -84 144 l1 68 27 -31 c15 -17 53 -53 85 -79 63 -53 87 -89 87 -132 0
-89 -136 -182 -224 -153 -67 22 -76 48 -76 213 l0 145 31 26 c17 14 35 24 40
20 5 -3 9 -74 9 -158z m84 -79 c22 -16 18 -55 -6 -71 -40 -24 -80 44 -42 71
10 7 21 13 24 13 3 0 14 -6 24 -13z"/>
<path d="M316 1869 c-57 -45 -19 -125 57 -120 52 3 75 83 35 121 -28 26 -58
26 -92 -1z"/>
<path d="M3329 1856 c-19 -9 -24 -19 -24 -51 0 -34 4 -41 28 -49 48 -17 89 23
72 70 -12 33 -44 46 -76 30z"/>
<path d="M4136 1809 c-30 -36 -31 -38 -10 -67 27 -39 86 -26 113 26 10 19 10
28 -4 48 -23 35 -66 32 -99 -7z"/>
<path d="M90 1791 c0 -7 9 -30 21 -53 15 -30 23 -37 29 -27 5 7 5 18 1 24 -39
53 -51 66 -51 56z"/>
<path d="M3948 1741 c-29 -26 -32 -32 -23 -57 14 -39 65 -46 89 -12 22 31 20
75 -3 88 -27 14 -26 14 -63 -19z"/>
<path d="M1410 1726 c0 -12 10 -16 38 -16 21 0 44 -6 51 -12 10 -11 12 -8 9
12 -3 22 -8 25 -50 28 -38 2 -48 0 -48 -12z"/>
<path d="M4142 1637 c25 -19 48 -47 55 -67 8 -24 12 -131 12 -338 1 -349 2
-346 -82 -402 -65 -44 -71 -73 -31 -132 16 -22 33 -49 39 -60 14 -29 28 -25
40 11 6 17 23 43 38 59 l27 28 0 396 c0 256 -4 407 -11 425 -13 34 -55 80 -91
99 -44 23 -42 16 4 -19z m32 -869 c8 -13 8 -23 0 -35 -16 -25 -28 -26 -55 -4
-24 19 -24 19 -5 40 22 25 44 24 60 -1z"/>
<path d="M1485 1630 c3 -5 10 -10 16 -10 5 0 9 5 9 10 0 6 -7 10 -16 10 -8 0
-12 -4 -9 -10z"/>
<path d="M647 1589 c-78 -47 -97 -76 -97 -153 0 -72 -8 -91 -67 -154 -41 -43
-55 -52 -84 -52 -18 0 -45 -7 -59 -15 -14 -7 -39 -21 -57 -29 -41 -19 -44 -34
-41 -180 3 -134 -5 -121 101 -159 65 -24 83 -23 52 3 -12 10 -15 40 -15 150 0
149 4 163 70 215 14 11 56 46 94 78 66 55 71 57 125 57 72 0 101 19 101 65 0
27 -8 40 -40 68 -45 38 -49 56 -20 103 12 18 17 35 12 38 -5 3 -38 -13 -75
-35z m36 -96 c8 -7 -21 -43 -35 -43 -12 0 -10 24 4 38 14 14 22 15 31 5z m49
-50 c24 -21 23 -50 -2 -63 -46 -25 -88 23 -54 61 21 23 32 24 56 2z m-420
-285 c3 -7 2 -69 -1 -138 -5 -108 -8 -125 -23 -128 -16 -3 -18 8 -18 125 0 87
4 133 12 141 15 15 25 15 30 0z"/>
<path d="M3883 1596 c21 -19 37 -43 37 -55 0 -12 4 -20 9 -17 24 15 -34 106
-68 106 -9 0 0 -13 22 -34z"/>
<path d="M3727 1574 c-14 -14 -7 -43 15 -58 21 -15 24 -14 43 4 15 16 17 24 9
38 -11 18 -55 28 -67 16z"/>
<path d="M4020 1570 c-16 -10 -28 -112 -29 -253 -1 -125 -27 -167 -101 -167
-17 0 -40 -5 -51 -10 -17 -10 -49 -59 -49 -77 0 -4 43 -48 95 -98 l95 -91 0
-50 c0 -29 6 -59 15 -70 13 -18 14 -17 15 19 0 51 23 92 59 107 17 7 35 18 41
26 8 8 13 117 17 318 5 274 4 308 -11 331 -17 26 -66 34 -96 15z m68 -72 c16
-16 17 -322 1 -368 -14 -38 -57 -60 -118 -60 -33 0 -44 -6 -71 -37 l-31 -38
-25 28 c-51 59 -11 107 89 107 96 0 97 1 97 201 0 168 2 176 36 178 5 1 15 -4
22 -11z m19 -445 c-3 -3 -11 -2 -17 2 -8 5 -7 11 2 22 12 15 13 14 16 -1 2
-10 1 -20 -1 -23z m-79 -20 c-2 -9 -14 -20 -28 -23 -36 -9 -36 -36 0 -86 17
-25 29 -51 26 -60 -4 -10 -21 2 -61 46 -50 55 -54 62 -44 87 13 38 36 53 77
53 26 0 33 -4 30 -17z m66 -69 c9 -24 8 -31 -10 -48 -37 -37 -88 0 -58 42 18
26 59 29 68 6z"/>
<path d="M0 1525 c0 -15 4 -24 10 -20 5 3 10 12 10 20 0 8 -4 17 -10 20 -6 4
-10 -5 -10 -20z"/>
<path d="M4984 1479 c-21 -17 -52 -38 -67 -46 -23 -12 -28 -20 -25 -46 3 -29
7 -33 43 -37 22 -3 48 -2 57 2 37 18 70 126 45 147 -11 9 -23 4 -53 -20z m33
-56 c4 -10 -2 -23 -16 -35 -26 -20 -41 -16 -41 11 0 36 45 56 57 24z"/>
<path d="M3930 1379 c0 -109 0 -111 -29 -140 -24 -23 -26 -29 -12 -29 41 0 53
33 58 159 3 82 1 121 -6 121 -7 0 -11 -39 -11 -111z"/>
<path d="M5105 1468 c-4 -10 -4 -26 0 -35 8 -17 8 -17 12 0 3 9 3 25 0 35 -4
16 -4 16 -12 0z"/>
<path d="M0 1351 c0 -99 1 -103 30 -140 40 -50 50 -88 50 -199 0 -77 -3 -94
-17 -99 -10 -4 -24 3 -40 21 -15 18 -23 22 -23 12 0 -8 4 -18 10 -21 5 -3 10
-21 10 -38 0 -18 5 -39 10 -47 9 -13 15 -10 40 18 l30 32 0 150 c0 83 4 150 8
150 5 0 16 -8 25 -18 14 -16 17 -43 17 -163 l0 -144 -31 -38 -31 -38 22 -24
c21 -22 25 -23 44 -10 34 25 81 19 119 -15 27 -23 44 -30 76 -30 23 0 55 -7
71 -15 l30 -16 0 66 c0 37 -4 65 -10 65 -5 0 -10 -11 -10 -25 0 -33 -34 -33
-98 -1 -26 13 -62 27 -79 31 -18 3 -42 18 -53 33 -20 25 -21 34 -14 183 l7
156 -47 28 c-57 33 -66 49 -66 117 0 58 -9 76 -52 103 l-28 17 0 -101z"/>
<path d="M152 1418 c-7 -7 -12 -37 -12 -68 0 -69 20 -93 72 -88 l33 3 0 80 0
80 -40 3 c-23 2 -46 -3 -53 -10z m66 -102 c5 -24 -10 -38 -31 -30 -17 6 -23
35 -10 48 12 12 38 1 41 -18z"/>
<path d="M324 1407 c-22 -19 -26 -29 -20 -50 9 -39 48 -62 78 -46 30 16 38 28
38 61 0 26 -31 58 -57 58 -6 0 -24 -10 -39 -23z"/>
<path d="M3683 1380 c-26 -11 -43 -40 -43 -75 l0 -26 83 3 82 3 3 30 c2 17 -3
38 -10 48 -16 21 -82 31 -115 17z"/>
<path d="M5005 1296 c-49 -34 -129 -92 -176 -128 -98 -75 -162 -102 -287 -122
-49 -8 -105 -22 -125 -32 l-37 -18 0 -160 c0 -152 1 -163 24 -201 l24 -40 -44
-47 c-40 -42 -44 -52 -44 -96 0 -35 6 -57 21 -76 21 -26 87 -61 97 -51 3 3 0
5 -6 5 -7 0 -12 7 -12 15 0 19 46 49 65 41 21 -8 19 -52 -2 -66 -14 -9 -6 -10
37 -6 44 4 59 1 78 -14 26 -21 28 -33 7 -50 -12 -10 -21 -8 -50 10 -20 12 -38
20 -40 18 -3 -2 17 -26 44 -52 l49 -48 115 95 c63 53 118 101 122 107 4 6 25
25 47 41 61 43 103 40 163 -13 74 -65 48 -21 -31 53 -103 97 -128 100 -214 24
-65 -57 -85 -68 -120 -60 -46 10 -118 80 -132 128 -6 23 -18 51 -25 63 -17 27
-20 182 -5 211 18 33 42 43 183 74 71 15 149 37 175 48 26 12 57 21 69 21 29
0 75 36 75 60 0 23 -24 43 -47 38 -10 -2 -25 -17 -33 -34 -9 -17 -21 -29 -28
-26 -7 2 -26 -8 -43 -22 -17 -14 -40 -28 -52 -31 -12 -3 -76 -17 -142 -31
-134 -28 -153 -37 -195 -96 -54 -74 -52 -127 5 -199 26 -33 35 -54 35 -83 0
-34 7 -46 53 -93 53 -52 55 -53 111 -53 56 0 59 1 115 55 47 45 64 55 92 55
41 0 76 -21 65 -39 -5 -7 -20 -11 -35 -9 -21 2 -41 -10 -86 -49 -32 -29 -73
-59 -91 -68 -67 -32 -134 -13 -211 58 -53 49 -101 77 -133 77 -17 0 -19 -3
-10 -19 14 -28 13 -39 -9 -51 -34 -18 -51 -2 -51 46 0 42 2 45 55 80 30 20 55
40 55 43 0 4 -15 27 -32 51 -30 40 -33 51 -33 115 0 51 5 77 18 95 9 13 17 41
17 61 0 63 27 84 158 125 147 46 160 53 252 129 41 34 111 88 155 121 104 77
112 83 100 83 -5 0 -50 -29 -100 -63z"/>
<path d="M4989 1217 c-69 -56 -147 -121 -173 -143 -36 -33 -72 -51 -158 -80
-61 -21 -120 -46 -132 -57 -12 -10 -15 -16 -6 -13 112 36 242 75 270 80 21 4
57 25 92 55 31 27 68 51 82 55 19 5 26 13 26 32 0 38 13 55 74 99 31 22 56 48
56 58 0 9 -1 17 -2 17 -2 -1 -60 -47 -129 -103z"/>
<path d="M275 1250 c3 -5 11 -10 16 -10 6 0 7 5 4 10 -3 6 -11 10 -16 10 -6 0
-7 -4 -4 -10z"/>
<path d="M1519 1234 c-17 -21 0 -49 32 -49 18 0 25 6 27 24 6 38 -34 55 -59
25z"/>
<path d="M5066 1188 c-9 -12 -16 -29 -16 -38 0 -21 26 -57 51 -70 18 -10 19
-7 19 60 0 63 -2 70 -19 70 -11 0 -27 -10 -35 -22z"/>
<path d="M0 1136 c0 -21 6 -36 15 -40 16 -6 21 27 9 58 -11 28 -24 17 -24 -18z"/>
<path d="M1144 1088 c-38 -28 -94 -73 -124 -98 -100 -86 -110 -90 -240 -90
-87 0 -127 -4 -163 -18 -43 -17 -46 -20 -33 -37 13 -18 14 -18 58 3 59 29 105
28 150 -3 20 -14 42 -25 48 -25 6 0 32 16 57 35 48 37 54 39 91 29 33 -9 27
-30 -17 -56 -21 -13 -58 -36 -81 -53 l-42 -29 -59 32 c-88 49 -108 44 -202
-47 l-59 -56 4 70 c6 95 -4 126 -56 169 -52 42 -56 43 -56 14 0 -38 12 -68 25
-68 7 0 24 -13 38 -30 19 -22 27 -46 32 -102 7 -72 27 -128 44 -128 5 0 31
-16 57 -36 l48 -37 -41 52 c-44 55 -45 64 -11 114 41 58 118 73 188 37 54 -27
70 -25 131 16 97 65 276 214 288 240 13 29 15 154 2 154 -4 0 -39 -23 -77 -52z
m46 -49 c16 -29 12 -47 -15 -65 -30 -20 -58 -11 -73 22 -16 33 -16 32 19 53
35 21 54 18 69 -10z m-96 -72 c8 -13 7 -24 -4 -45 -19 -32 -78 -43 -100 -17
-11 13 -7 20 26 50 41 38 60 41 78 12z"/>
<path d="M1507 1133 c-4 -3 -7 -66 -7 -140 l0 -133 -42 -47 c-47 -51 -193
-163 -212 -163 -19 0 -63 -51 -80 -92 -25 -58 -20 -115 15 -188 32 -69 77
-123 120 -145 24 -13 28 -12 44 5 13 14 31 20 64 20 43 0 51 4 103 57 70 71
89 112 76 162 -15 51 -5 137 19 169 22 30 115 66 145 56 13 -4 18 0 18 13 0
24 -22 57 -80 118 -55 57 -70 103 -77 228 -3 42 -8 77 -12 77 -10 0 -21 -101
-21 -192 0 -44 -6 -83 -16 -104 -9 -19 -69 -82 -133 -140 -153 -140 -168 -156
-180 -200 -32 -116 113 -190 196 -100 34 36 38 55 34 142 -2 31 3 48 22 69 37
43 47 26 47 -77 0 -117 -15 -148 -94 -200 -33 -21 -71 -41 -85 -45 -31 -8 -96
26 -141 72 -28 28 -34 44 -38 90 -6 73 10 108 72 157 99 78 243 217 260 251
21 46 23 258 3 276 -8 6 -17 8 -20 4z m183 -437 c-6 -6 -21 -4 -44 6 l-34 17
-65 -50 c-73 -55 -107 -93 -107 -120 0 -26 -16 -32 -34 -13 -21 20 -20 63 0
92 9 13 57 57 106 98 l91 76 48 -48 c32 -32 45 -52 39 -58z m-340 -146 c0 -5
16 -23 35 -41 68 -64 23 -151 -56 -109 -22 12 -26 68 -6 89 10 10 9 14 -5 22
-21 11 -23 30 -7 46 12 12 39 7 39 -7z"/>
<path d="M12 1038 c-7 -7 -12 -19 -12 -27 0 -11 5 -8 16 7 18 25 15 39 -4 20z"/>
<path d="M3732 1008 c-19 -19 -14 -36 15 -61 87 -72 123 -111 123 -134 0 -37
23 -73 90 -138 84 -81 90 -98 90 -253 0 -142 -5 -127 80 -232 23 -29 27 -62
15 -138 l-8 -53 39 3 c36 3 39 5 42 37 6 60 -8 101 -47 144 -86 94 -91 107
-91 239 0 138 -9 166 -69 223 -55 52 -71 83 -71 143 0 55 -7 67 -72 111 -25
18 -60 53 -78 77 -34 47 -39 51 -58 32z"/>
<path d="M2200 946 c0 -70 27 -110 105 -151 33 -18 72 -44 88 -58 l27 -25 0
-208 c0 -198 1 -210 20 -222 17 -10 20 -23 20 -76 0 -49 5 -70 22 -92 35 -48
101 -114 113 -114 14 0 75 63 75 77 0 7 -21 26 -47 44 -60 40 -78 61 -109 124
-23 49 -24 57 -24 285 0 129 -4 241 -9 249 -6 9 -38 16 -91 21 -76 7 -84 10
-116 42 -24 23 -36 46 -40 73 -9 68 -14 85 -24 85 -6 0 -10 -24 -10 -54z"/>
<path d="M3658 983 c7 -3 16 -2 19 1 4 3 -2 6 -13 5 -11 0 -14 -3 -6 -6z"/>
<path d="M4900 884 c-85 -22 -99 -29 -142 -71 -26 -25 -52 -59 -59 -75 -10
-26 -9 -33 11 -60 20 -27 20 -32 7 -45 -20 -21 -47 -9 -80 35 -22 28 -27 45
-25 77 3 37 6 41 58 67 30 15 64 27 74 27 11 1 16 4 13 8 -11 11 -135 -28
-153 -48 -23 -26 -21 -75 5 -120 18 -31 20 -40 9 -69 -11 -34 -11 -35 47 -87
32 -29 64 -53 70 -53 7 0 37 27 67 60 65 70 91 82 161 75 73 -7 88 -13 125
-49 l33 -31 -3 44 c-2 35 -9 48 -31 65 -25 18 -40 21 -115 18 -95 -3 -101 -6
-175 -76 -40 -38 -52 -44 -68 -36 -37 20 -41 45 -11 72 44 40 157 98 193 98
18 0 61 5 96 11 61 11 66 10 89 -12 l24 -22 0 64 0 65 -56 47 c-31 26 -59 47
-63 46 -3 0 -49 -12 -101 -25z m120 -66 c16 -22 30 -47 30 -55 0 -22 -37 -15
-58 12 -16 20 -29 25 -63 25 -52 0 -54 -2 -98 -58 -43 -55 -68 -69 -88 -49
-13 13 -9 22 43 78 72 80 87 88 151 89 51 0 54 -2 83 -42z"/>
<path d="M3422 847 l-33 -34 23 -10 c13 -6 55 -7 98 -4 69 5 75 8 78 29 6 38
-15 52 -77 52 -52 0 -60 -3 -89 -33z"/>
<path d="M3048 841 c-79 -50 -78 -48 -78 -286 0 -174 -3 -214 -15 -233 -9 -12
-61 -60 -115 -107 -91 -78 -114 -105 -92 -105 15 0 207 161 224 188 16 24 18
55 18 253 0 213 1 227 20 244 20 18 20 17 20 -244 0 -304 5 -288 -100 -370
-91 -70 -190 -160 -190 -172 0 -23 51 -6 87 29 21 20 76 67 121 104 45 37 88
81 96 96 11 22 17 85 22 248 5 157 11 227 21 247 19 38 70 67 118 67 51 0 120
-31 136 -61 6 -13 13 -65 14 -117 3 -88 1 -97 -21 -118 -13 -13 -35 -24 -49
-24 -30 0 -28 13 -25 -186 2 -190 -3 -208 -58 -201 -32 4 -44 -2 -91 -41 -61
-52 -54 -69 10 -23 48 35 75 38 141 14 41 -15 51 -15 73 -3 23 12 28 12 35 0
8 -13 10 -12 10 2 0 20 -31 88 -40 88 -3 0 -16 9 -28 20 -20 19 -22 31 -22
120 0 54 4 110 9 123 6 14 28 35 50 48 54 30 65 65 59 186 l-5 94 -69 69 c-72
72 -87 79 -113 56 -32 -27 -57 -28 -89 -1 -16 14 -32 25 -34 25 -2 0 -25 -13
-50 -29z"/>
<path d="M3811 836 c-14 -17 -11 -68 4 -73 6 -2 10 16 10 42 0 25 -1 45 -1 45
-1 0 -7 -6 -13 -14z"/>
<path d="M3660 833 c0 -4 16 -19 34 -31 19 -13 57 -48 85 -77 l51 -54 0 -138
c0 -76 3 -160 6 -188 5 -52 5 -54 -61 -144 -22 -30 -25 -44 -25 -117 0 -68 3
-84 15 -84 12 0 15 14 15 63 0 60 12 94 57 165 11 19 17 21 29 11 24 -20 17
-73 -17 -115 -24 -30 -29 -45 -25 -68 3 -15 6 -35 6 -42 0 -8 7 -14 15 -14 11
0 15 11 15 43 0 62 10 71 77 72 47 0 58 -3 61 -17 3 -14 -3 -18 -26 -18 -33 0
-62 -27 -62 -58 0 -30 16 -28 24 3 4 15 16 27 31 31 31 8 45 -2 45 -32 0 -37
13 -29 38 23 33 71 29 94 -34 163 -12 14 -24 36 -26 49 -4 33 -32 49 -57 34
-14 -9 -21 -9 -30 0 -19 19 -13 34 29 70 l40 34 0 79 0 79 -132 131 c-123 121
-178 167 -178 147z m248 -265 c21 -21 14 -48 -10 -48 -35 0 -51 15 -43 39 7
23 34 28 53 9z m-8 -117 c14 -27 13 -47 -5 -65 -24 -24 -45 -9 -45 33 0 21 3
41 7 44 12 13 32 7 43 -12z m68 -200 c4 -24 -22 -71 -38 -71 -14 0 -12 74 2
88 17 17 32 10 36 -17z"/>
<path d="M0 788 c0 -18 59 -68 142 -121 53 -34 57 -35 72 -18 21 23 20 38 -4
51 -16 8 -26 7 -42 -5 -13 -8 -26 -15 -31 -15 -5 0 -38 28 -73 62 -38 36 -64
55 -64 46z"/>
<path d="M2146 730 l-46 -49 0 -92 c0 -86 -2 -93 -26 -116 -24 -22 -25 -29
-19 -71 8 -57 38 -109 105 -181 56 -61 66 -64 19 -5 -26 33 -30 45 -26 79 6
42 16 53 107 118 38 28 46 39 48 70 3 32 -2 43 -33 74 -28 28 -39 33 -48 24
-9 -10 -8 -14 6 -22 39 -22 13 -99 -33 -99 -40 0 -49 22 -41 105 6 64 8 70 33
79 24 8 35 4 85 -31 32 -22 64 -51 70 -64 17 -32 17 -145 1 -159 -7 -5 -37
-28 -66 -51 -67 -51 -81 -79 -58 -114 9 -14 20 -49 23 -78 5 -39 14 -62 40
-91 18 -22 33 -43 33 -48 0 -4 7 -8 16 -8 11 0 14 6 9 21 -14 42 -11 215 4
233 16 19 22 20 46 3 17 -13 17 -15 0 -44 -17 -28 -17 -32 -1 -54 10 -15 16
-44 16 -80 0 -40 5 -60 16 -70 15 -12 16 -11 11 6 -3 11 -9 75 -12 142 -6 107
-9 122 -26 126 -17 5 -19 16 -19 144 0 76 -5 155 -11 177 -9 33 -14 37 -35 33
-16 -3 -38 4 -60 19 -19 14 -51 31 -71 39 -30 13 -33 17 -23 30 18 22 32 19
84 -20 66 -51 56 -29 -13 27 l-59 48 -46 -50z m8 -332 c15 -24 -13 -53 -43
-43 -23 7 -28 34 -9 53 16 16 38 12 52 -10z m210 -63 c8 -22 -2 -41 -29 -53
-31 -14 -37 -41 -33 -136 2 -42 1 -76 -2 -76 -22 0 -30 33 -30 121 0 90 2 100
26 128 28 33 58 40 68 16z"/>
<path d="M3183 730 c-12 -5 -30 -21 -40 -37 -16 -23 -18 -55 -21 -228 -3 -159
-7 -207 -20 -235 -19 -41 -80 -101 -175 -173 l-68 -52 52 -3 52 -3 87 85 c48
47 94 86 103 86 9 0 23 10 31 22 13 18 16 54 16 185 0 152 1 163 20 173 14 7
26 8 39 0 31 -16 32 -13 25 53 l-7 62 22 -19 c11 -11 21 -16 21 -12 0 18 -32
66 -56 85 -29 23 -46 25 -81 11z m75 -93 c2 -21 -1 -37 -7 -37 -11 0 -31 60
-24 73 11 19 28 -2 31 -36z m-58 13 c0 -24 -37 -63 -50 -55 -15 9 -12 36 7 57
21 24 43 23 43 -2z"/>
<path d="M3477 682 c-13 -15 -17 -39 -17 -117 0 -110 -12 -142 -76 -190 -35
-27 -36 -29 -29 -80 4 -34 2 -55 -4 -60 -19 -11 -12 -33 14 -39 38 -10 57 -48
61 -122 4 -80 14 -98 14 -26 0 46 2 52 21 52 19 0 19 1 5 22 -22 32 -23 285
-1 314 10 13 14 46 15 107 0 128 -1 127 128 127 111 0 132 -7 132 -42 0 -15
-12 -18 -97 -20 l-98 -3 -3 -100 c-1 -55 -7 -104 -12 -109 -11 -11 -14 -298
-4 -358 5 -29 11 -38 27 -38 19 0 20 5 16 293 l-4 292 67 3 c65 3 68 2 74 -22
8 -32 1 -42 -34 -49 -24 -5 -30 -12 -35 -42 -7 -44 5 -80 33 -95 19 -10 29
-60 12 -60 -5 0 -18 -9 -30 -20 -21 -19 -22 -30 -22 -160 l0 -140 29 0 29 0 4
104 c3 101 4 105 41 158 l37 54 0 170 c0 220 5 214 -162 214 -99 0 -117 -3
-131 -18z"/>
<path d="M0 593 c0 -119 24 -141 83 -75 17 19 17 19 -8 15 -31 -6 -33 12 -5
42 l20 21 -45 44 -45 44 0 -91z"/>
<path d="M1752 632 c-11 -18 -21 -22 -53 -20 -69 4 -95 -52 -31 -67 30 -6 71
-43 91 -82 13 -25 15 -192 2 -211 -6 -10 -13 -9 -32 7 -22 18 -23 22 -11 53
17 49 15 92 -7 119 -29 35 -56 16 -56 -38 0 -34 -8 -49 -55 -103 -69 -79 -169
-156 -216 -164 l-35 -7 63 -59 c39 -37 72 -59 87 -60 18 0 22 4 16 17 -21 48
-17 80 15 116 17 20 40 39 51 42 40 13 106 -33 82 -56 -4 -4 -24 -11 -43 -16
-28 -7 -36 -15 -38 -37 -7 -59 59 -78 98 -28 19 23 21 36 17 80 -5 43 -13 61
-41 93 -20 21 -36 43 -36 48 0 15 51 72 60 66 4 -2 10 -18 13 -34 4 -17 19
-38 37 -51 30 -21 32 -21 51 -5 17 16 19 32 19 132 0 72 -5 122 -12 136 -7 12
-15 51 -18 87 -5 60 -6 63 -18 42z"/>
<path d="M4275 607 c-41 -27 -49 -37 -47 -57 2 -14 6 -62 9 -107 4 -74 7 -85
36 -118 21 -24 59 -48 112 -70 79 -34 91 -45 169 -139 61 -75 53 -46 -11 38
-50 65 -69 82 -135 116 -105 55 -128 84 -128 163 0 53 4 67 36 113 34 49 41
83 19 91 -6 2 -33 -12 -60 -30z"/>
<path d="M487 582 c3 -20 6 -38 7 -39 1 -1 8 4 17 11 15 10 15 14 -6 39 l-24
27 6 -38z"/>
<path d="M997 576 c-11 -27 4 -46 35 -46 26 0 29 3 26 28 -2 21 -9 28 -29 30
-17 2 -29 -3 -32 -12z"/>
<path d="M5021 547 c2 -2 25 -23 52 -47 37 -34 47 -39 47 -24 -1 19 -69 74
-92 74 -6 0 -9 -1 -7 -3z"/>
<path d="M159 492 c-13 -26 -24 -51 -24 -57 -1 -5 -5 -20 -9 -32 -4 -13 -2
-30 4 -40 10 -16 10 -15 5 4 -8 28 9 38 29 17 20 -19 34 -10 62 41 10 19 21
35 25 35 3 0 15 -10 27 -23 19 -20 20 -27 10 -60 -10 -34 -9 -40 10 -60 l22
-21 0 60 0 61 -68 61 -69 61 -24 -47z"/>
<path d="M510 520 c-24 -24 -25 -38 -4 -68 29 -42 104 -17 104 35 0 20 -38 53
-60 53 -11 0 -29 -9 -40 -20z"/>
<path d="M4147 533 c-4 -3 -7 -57 -7 -118 0 -134 5 -144 113 -206 141 -81 171
-115 93 -104 -73 11 -86 2 -85 -58 0 -41 2 -47 9 -30 9 21 16 23 88 23 66 0
82 -3 97 -20 25 -28 49 -26 41 2 -3 13 -6 28 -6 35 0 28 -68 87 -144 125 -143
71 -167 106 -174 256 -4 95 -9 112 -25 95z"/>
<path d="M0 359 c0 -46 4 -59 25 -79 28 -26 31 -41 12 -71 -11 -19 -7 -25 39
-67 57 -53 74 -79 74 -116 0 -14 4 -26 8 -26 14 0 -4 88 -21 108 -21 23 -22
56 -2 72 13 11 21 8 45 -15 26 -25 30 -36 32 -94 l3 -66 48 -3 47 -3 0 51 0
52 -155 156 -155 157 0 -56z"/>
<path d="M682 364 c-43 -30 -21 -94 32 -94 20 0 56 35 56 55 0 18 -35 55 -53
55 -7 0 -23 -7 -35 -16z"/>
<path d="M4866 284 c-58 -53 -106 -98 -106 -101 0 -9 38 18 100 71 36 31 69
56 75 56 5 0 28 -19 52 -42 l43 -42 42 31 c28 20 44 40 46 57 3 23 1 25 -25
20 -22 -4 -34 0 -52 20 -14 14 -34 26 -47 26 -14 0 -61 -35 -128 -96z"/>
<path d="M536 238 c-20 -23 -36 -48 -36 -56 0 -8 14 -30 30 -49 25 -28 30 -42
30 -83 0 -28 5 -50 10 -50 6 0 10 53 10 140 0 77 -2 140 -4 140 -3 0 -21 -19
-40 -42z"/>
<path d="M276 248 c10 -13 36 -42 56 -65 36 -41 38 -46 38 -113 l0 -70 35 0
c30 0 35 3 35 23 0 12 3 38 6 57 5 34 3 37 -84 113 -89 76 -123 98 -86 55z"/>
<path d="M1088 182 c-42 -31 -81 -67 -87 -80 -17 -35 -14 -102 4 -102 11 0 15
11 15 36 0 52 12 67 96 123 81 54 95 59 113 37 9 -11 -2 -23 -61 -62 -70 -47
-73 -51 -76 -91 l-3 -43 76 0 76 0 -20 26 c-29 37 -26 65 9 109 34 43 34 51
-1 76 -48 35 -61 32 -141 -29z m70 -124 c-4 -30 -48 -39 -48 -10 0 24 8 32 32
32 14 0 19 -6 16 -22z"/>
<path d="M4835 168 c-60 -60 -115 -138 -115 -163 0 -3 29 -5 65 -5 75 0 82 12
40 62 -29 34 -30 41 -11 57 10 9 16 8 26 -4 21 -25 44 -17 90 30 l44 45 -24
25 c-13 14 -28 25 -33 25 -5 0 -42 -33 -82 -72z"/>
<path d="M5107 185 c-4 -8 -2 -17 3 -20 6 -4 10 3 10 14 0 25 -6 27 -13 6z"/>
<path d="M2081 181 c-9 -6 -11 -20 -6 -49 6 -35 3 -43 -22 -66 -15 -14 -33
-26 -40 -26 -7 0 -13 -9 -13 -20 0 -16 7 -20 34 -20 48 0 126 73 126 118 0 50
-44 85 -79 63z"/>
<path d="M4710 150 c0 -5 -30 -41 -66 -80 l-66 -70 44 0 c38 0 47 4 68 32 21
29 42 128 26 128 -3 0 -6 -4 -6 -10z"/>
<path d="M1892 107 c-27 -28 -31 -37 -25 -70 5 -34 8 -37 39 -37 l34 0 0 70
c0 39 -4 70 -8 70 -4 0 -22 -15 -40 -33z"/>
<path d="M4991 106 l-33 -34 27 -36 c15 -20 33 -36 40 -36 6 0 29 15 51 34
l39 34 -34 36 c-19 20 -40 36 -46 36 -6 0 -26 -15 -44 -34z"/>
<path d="M0 79 c0 -41 22 -79 48 -79 32 0 28 24 -13 68 -34 36 -34 37 -35 11z"/>
<path d="M1260 67 c0 -7 13 -26 29 -41 22 -21 37 -27 61 -24 l33 3 -55 38
c-60 40 -68 44 -68 24z"/>
<path d="M4908 46 c-7 -39 -4 -55 8 -44 3 3 4 23 2 44 l-3 39 -7 -39z"/>
<path d="M2200 15 c-25 -14 -24 -14 19 -15 37 0 42 2 31 15 -15 18 -18 18 -50
0z"/>
</g>
</svg>